<?xml version="1.0" encoding="utf-8"?>
<!-- Generator: Adobe Illustrator 19.2.0, SVG Export Plug-In . SVG Version: 6.00 Build 0)  -->
<svg version="1.1" id="Layer_1" xmlns="http://www.w3.org/2000/svg" xmlns:xlink="http://www.w3.org/1999/xlink" x="0px" y="0px"
	 viewBox="0 0 266.3 350.3" style="enable-background:new 0 0 266.3 350.3;" xml:space="preserve">
<style type="text/css">
	.st0{fill:#DDC48F;}
	.st1{fill:#3D271A;}
</style>
<g>
	<g>
		<g>
			<path class="st0" d="M12.3,18.3v313.5h229.5V18.3H12.3z M225.8,229.3h-197V32.8h197V229.3z"/>
			<g>
				<path class="st1" d="M51.9,305.2c-0.9,2-1.8,3.6-3.1,4.8c-1.5,1.6-3.8,2.1-5.2,2.1c-6.7,0-8.6-3.9-9.6-7
					c-0.3-0.9-0.3-2.2-0.3-2.6v-8.4v-27.3h-4.5v-1.4c0,0,3.2,0.2,4.8-1.5c3-3.6,3.8-10,3.8-10H40v11.5H48v1.4H40
					c0,6.7,0,13.4,0,13.4v15.5v7.6c0,0,0,0.5,0,0.7c0,0.3,0,0.8,0,1.3c0.1,2.2,2.1,4.5,4.3,4.7c1.6,0.1,4.2-1,6.2-5.4
					C50.5,304.6,51.5,305.2,51.9,305.2z"/>
				<path class="st1" d="M76.3,273.9c-0.8,1.5-2.5,2.9-4.7,2.9c-0.5,0-0.9,0-1.4-0.1c-1.3-0.3-2.2-1-2.8-2.1c-1-2-0.6-4.8,0.1-7.2
					c-1,0.8-1.7,2.2-2.3,3.1c-0.8,1.1-1.4,2.5-1.7,3.9c0,0-1.4,3.7-1.4,7.5c0,9.1,0,24.5,0,24.5c0,2.6,1.6,2.8,2.8,2.8v1.8
					c-0.8,0-2.4,0.3-3.6-0.2c-1.4-0.6-2.6-0.6-3.8,0c-1.1,0.6-3.6,0.3-3.6,0.3v-1.8c2.5,0,2.4-1.1,2.4-2.9v-32.4
					c0,0,0.1-1.1-0.9-1.5c-0.5-0.2-1.4-0.1-1.4-0.1v-1c0,0,1.7-1.6,6.1-5.4c1.3-1.2,1.9,0,1.9,1c0,0.1,0,8.3,0,8.3
					c0.3-1.6,0.5-3.4,2.3-6c1.1-1.6,2.9-2.8,3.4-3c2.4-10.7,9.3-20.5,12.6-23.3c1-0.8,3-2,4.6-2c2.3-0.1,3.9,1.2,4.7,3
					c1,2.9-1.3,5-2.1,5.6c-1.3,0.9-3,0.9-4.4,0.2c-0.9-0.3-1.3-1.3-1.5-2.2c-0.2-0.8-0.2-1.5-1.4-1.4c-3.8,0.3-11.5,16.9-11.5,19.6
					c0,0,1.8-0.3,4.1,0.5c0.3,0.1,0.6,0.2,0.9,0.5c0.5,0.2,0.8,0.6,1.1,0.8C77,269.3,77.5,271.7,76.3,273.9z M74.6,268.3
					c-1.4-1.3-3.4-1.8-5.4-1.5c-0.2,0.1-0.3,0.1-0.5,0.1c-0.7,1.9-1,4,0,6c0.9,1.8,4.7,2.4,6.3,0.6
					C76.1,272.3,76.4,269.9,74.6,268.3z M90.2,309.2v1.8c-0.9,0-2.4,0.3-3.7-0.2c-1.4-0.6-3.2-0.6-4.4,0c-1.1,0.5-3.6,0.2-3.6,0.2
					v-1.7c2.6,0,2.5-1.1,2.5-2.9V278v-3.8c0,0,0.1-1.2-0.9-1.6c-0.5-0.1-1.4,0-1.4,0l-0.1-1c0,0,1.5-1.3,6.8-5.5
					c1.3-1,1.8,0.1,1.8,1.2c0,1.3,0,21.5,0,21.5c0,6.7,0,17.7,0,17.7C87.3,309,88.9,309.2,90.2,309.2z"/>
				<path class="st1" d="M114.1,309c-2.3,1.7-4.7,2.4-6.9,2.4c-2.6,0-4.5-0.9-6.1-1.7c-0.6-0.3-1.6-1-2.5-0.6
					c-0.8,0.5-0.7,1.6-0.7,1.6h-1.6l-0.1-12.2c0,0,2.1,0,2.2,0c0.1,1.9,0.8,4.8,2,6.5c1,1.5,3.4,4.4,6.8,4.5c4.2,0,6.3-3.8,6.5-6.7
					c0.2-3.4-1-5.9-2.8-8c-1.4-1.8-7-5.5-7.9-6.2c0,0-4.7-3-6.1-6.3c-0.6-1.6-2.6-8.7,2-13.2c2.2-2.2,4.9-3.2,7.7-3.1
					c2.8,0.1,4.4,0.7,5.7,1.5c0.5,0.2,1.5,0.9,2.2,0.2c0.7-0.7,0.5-1.6,0.5-1.6s1.2,0.1,1.4,0.2v13.3h-2.2c0-2.8-0.1-5.3-2.2-8.5
					c-1.1-1.7-3.3-3.6-6-3.4c-5.7,0.1-7,3.8-6.7,5.7c0.5,2.8,2.3,5.2,7,8.4c1.6,1,7.5,4.8,9,6.9c2.1,3.1,2.8,4.6,3.1,7
					C118.9,299.6,118.3,305.8,114.1,309z"/>
				<path class="st1" d="M137.7,287.7c-0.6,0.1-1.1,0.2-1.7,0.3c-1.3,0.3-2.6,0.7-3.7,1.1c-0.2,0.1-0.5,0.2-0.7,0.3
					c-0.9,0.6-1.6,1-2,1.8c-0.1,0.1-0.1,0.2-0.1,0.3v11.1c0,3.4,2.1,5.7,4.5,6c4.7,0.3,7.5-3,8.5-6.3c0.3-1.4,0.8-3.8,0.8-3.8
					c0.3-0.1,1.6,0,2,0c0,0-0.2,2.9-1.2,5.4c-1.7,4.6-5.3,7.2-9.5,7.2c0,0-0.1,0-0.2,0c0,0-0.1,0-0.2,0c-6.7,0-9.2-4.4-10.2-7.3
					c-0.3-1-0.6-4.7-0.6-4.7v-22.6c0,0,0.2-5.6,4.6-8.6c1.5-1.1,3.6-1.8,6.1-1.8c0.1,0,0.1,0,0.2,0c0.1,0,0.1,0,0.2,0
					c6.7,0,10.1,4.7,10.8,7.9c1.4,5.4-0.6,9.2-1.8,10.3c-1.2,1.1-1.5,1.3-2.2,1.7C139.6,287.1,138.1,287.6,137.7,287.7z
					 M129.6,289.6c1.6-2.1,6.1-2.8,8.7-5.7c2.3-2.9,1.8-8,1.4-11.3c-0.1-0.8-0.8-2.4-2.1-3.8c-0.8-0.9-2.2-1.5-3-1.5
					c-0.8,0-2.4,0.1-3.7,1.4c-0.6,0.7-1,1.7-1.3,2.9c-0.1,0.6-0.1,1.3-0.1,2V289.6z"/>
				<path class="st1" d="M179.1,308.3c0,0-0.9,2.4-4.7,2.5c-3.8,0.2-6.1-2.5-6.1-6c-0.3,1.1-0.9,3-3.9,5.2c-0.9,0.6-1.8,0.9-2.8,1
					c-0.1,0-0.2,0-0.2,0h-0.1c-0.7,0.1-1.5-0.2-2.2-0.3c-0.5-0.2-0.8-0.3-1.3-0.6c-3.1-1.5-4.5-4.2-5.2-6.3c-0.3-1-0.6-1.8-0.6-2.4
					v-0.2v-11.4v-6.2v-1v-4.9v-6.9c0,0,0.1-2.2-1.7-2.4c-1.8-0.2-2.4,1.5-2.4,1.5l-0.9-0.9c0,0,1-2.4,4.8-2.5
					c3.8-0.2,6.4,1.6,6.4,5.1c0,1,0,2.9,0,4.4v1.5v12.9v1.6v11.5c0,0-0.1,0.6-0.1,0.8c0,0.2,0,0.7,0,1.1c0.1,0.5-0.1,2.5,2,3.9
					c1.3,0.8,3.1,0.5,4.1-0.5c1.6-1.3,3.7-4,3.7-7.1v-1.7c0-6.3,0-10.8,0-10.8v-13.5c0-2.4,0-4.1,0-4.1c0-2.5-1.6-2.6-2.8-2.6V267
					c0.8,0,2.3-0.5,3.6,0.1c1.4,0.6,3.3,0.6,4.5,0c1.1-0.6,3.6-0.3,3.6-0.3v1.8c-2.6,0-2.5,1.1-2.5,2.8v3.9v24.1v0.2v0.9v6
					c0,0,0,2.2,1.8,2.4c1.8,0.2,2.1-1.5,2.1-1.5L179.1,308.3z"/>
				<path class="st1" d="M227.5,308.5c0,0-0.9,2.4-4.7,2.5c-3.8,0.2-6.4-1.6-6.4-5.1c0-1,0-2.8,0-4.4v-1.4v-13v-1.6v-11.5
					c0,0,0-0.6,0-0.8c0-0.2,0.1-0.7,0-1.1c-0.1-0.8-0.6-2.2-1.5-3.3c-1.3-1.1-2.2-1.5-3-1.5c-0.8,0-2.3,0.1-3.7,1.4
					c-0.6,0.7-1,1.7-1.3,2.9c0,0.1-0.1,0.3-0.1,0.6c0,9,0,16.2,0,16.2v13.5c0,2.4,0,4.1,0,4.1c0,2.5,1.6,2.6,2.9,2.6v1.7
					c-0.9,0-2.4,0.5-3.7-0.1c-1.3-0.6-3.3-0.6-4.4,0c-1.2,0.6-3.6,0.3-3.6,0.3v-1.8c2.5,0,2.4-1.1,2.4-2.8v-5.5v-7.7v-18.7
					c0,0,0-0.6,0-0.8c0-0.2,0-0.7,0-1.1c-0.1-0.8-0.6-2.2-1.5-3.3c-1.3-1.1-2.2-1.5-3-1.5c-0.8,0-2.4,0.1-3.7,1.4
					c-0.6,0.7-1,1.7-1.3,2.9c0,0.1-0.1,0.3-0.1,0.6c0,9,0,16.2,0,16.2v13.5c0,2.4,0,4.1,0,4.1c0,2.5,1.6,2.6,2.8,2.6v1.7
					c-0.8,0-2.3,0.5-3.6-0.1c-1.3-0.6-3.3-0.6-4.5,0c-1,0.6-3.4,0.3-3.4,0.3v-1.8c2.5,0,2.4-1.1,2.4-2.8v-3.9v-24.3v-1.7v-1.2
					c0,0,0.1-1-0.9-1.5c-0.5-0.1-1.5,0-1.5,0v-1.1c0,0,1.6-1.1,6.9-5.4c1.3-1,1.8,0.1,1.8,1.1c0,0.1,0,0.2,0,0.5v0.5
					c1-1.6,2.5-2.8,4.5-2.8c0.1,0,0.1,0,0.2,0c0.1,0,0.1,0,0.2,0c5.6,0,8.3,3.1,9.5,5.9c0.5-1.1,0.8-2.4,1.4-3.1
					c1-1.6,2.6-2.8,4.5-2.8c0.1,0,0.1,0,0.2,0c0.1,0,0.1,0,0.2,0c6.7,0,9.2,4.3,10.2,7.3c0.3,1,0.5,1.8,0.5,2.4v0.2v11.4v6.2v1v4.9
					v6.9c0,0,0,2.2,1.8,2.4c1.7,0.2,2.3-1.5,2.3-1.5L227.5,308.5z"/>
			</g>
			<g>
				<path class="st1" d="M242.6,333H12.1V17.4h230.5V333z M14,331.1h226.7V19.3H14V331.1z"/>
			</g>
		</g>
		<g>
			<path class="st1" d="M179.4,98.7l-1.3,1.1c0.4,0.4,0.7,0.9,1,1.4l1.4-1C180.1,99.6,179.8,99.1,179.4,98.7z"/>
			<path class="st1" d="M170.2,91.4c0.4,0.4,0.8,0.8,1.3,1.1l1.2-1.3c-0.4-0.4-0.9-0.8-1.3-1.2L170.2,91.4z"/>
			<path class="st1" d="M173,94c0.3,0.2,0.5,0.5,0.7,0.7c0,0,0.1,0.1,0.1,0.1h0c0,0,0,0,0,0l0,0c0,0,0,0,0,0l0,0c0,0,0,0,0,0
				c0,0,0,0,0,0c0,0,0,0,0,0l0,0c0,0,0,0,0,0c0,0,0,0,0,0c0,0,0,0,0,0c0,0,0,0,0,0c0,0,0,0,0,0l0,0c0,0,0,0,0,0c0,0,0,0,0,0
				c0,0,0,0,0,0c0,0,0,0,0,0c0,0,0,0,0,0c0,0,0,0,0,0c0,0,0,0,0,0c0,0,0,0,0,0c0,0,0,0,0,0c0,0,0,0,0,0c0,0,0,0,0,0c0,0,0,0,0,0l0,0
				c0,0,0,0,0,0c0,0,0,0,0,0c0,0,0,0,0,0l1.2-1.2c-0.4-0.4-0.8-0.8-1.2-1.3L173,94z"/>
			<path class="st1" d="M129.1,75.2L129.1,75.2C129.1,75.2,129.1,75.2,129.1,75.2L129.1,75.2C129.2,75.3,129.2,75.3,129.1,75.2
				L129.1,75.2C129.2,75.3,129.2,75.3,129.1,75.2C129.2,75.3,129.2,75.3,129.1,75.2c0.1,0,0.1,0,0.1,0h0c0,0,0,0,0,0s0,0,0,0h0
				c0,0,0,0,0,0c0,0,0,0,0,0c0,0,0,0,0,0h0c0,0,0,0,0,0c0,0,0,0,0,0c0.1,0,0.2,0,0.3,0l0.1-1.7c-0.6,0-1.2,0-1.8,0l0,1.7
				C128.4,75.2,128.7,75.2,129.1,75.2C129.1,75.2,129.1,75.2,129.1,75.2z"/>
			<path class="st1" d="M175.6,96.8c0.1,0.1,0.3,0.3,0.4,0.4v0c0,0,0,0,0,0c0,0,0,0,0,0l0,0c0,0,0,0,0,0v0c0,0,0,0,0,0c0,0,0,0,0,0
				c0,0,0,0,0,0c0,0,0,0,0,0c0,0,0,0,0,0c0,0,0,0,0,0c0,0,0,0,0,0l0,0c0,0,0,0,0,0c0,0,0,0,0,0c0,0,0,0,0,0v0c0,0,0,0,0,0l0,0
				c0.2,0.2,0.4,0.4,0.5,0.6L178,97c-0.4-0.4-0.8-0.9-1.2-1.3L175.6,96.8z"/>
			<path class="st1" d="M160.9,84.6c0.1,0.1,0.2,0.1,0.4,0.2c0,0,0,0,0,0c0,0,0,0,0,0c0,0,0,0,0,0s0,0,0,0c0,0,0,0,0,0s0,0,0,0
				s0,0,0,0c0,0,0,0,0,0c0,0,0,0,0,0l0,0c0,0,0,0,0,0c0,0,0,0,0,0c0,0,0,0,0,0h0c0,0,0.1,0,0.1,0.1c0,0,0,0,0,0s0,0,0,0c0,0,0,0,0,0
				v0c0,0,0,0,0,0c0.1,0,0.1,0.1,0.2,0.1h0c0,0,0,0,0,0l0,0c0,0,0,0,0,0l0,0c0,0,0,0,0,0h0c0,0,0,0,0,0c0,0,0,0,0,0c0,0,0,0,0,0
				c0,0,0,0,0,0c0,0,0,0,0,0c0,0,0,0,0,0c0,0,0,0,0,0c0,0,0,0,0,0c0,0,0,0,0,0c0,0,0,0,0,0c0,0,0,0,0,0c0,0,0,0,0,0
				c0.1,0.1,0.2,0.2,0.4,0.2l0.9-1.4c-0.5-0.3-1-0.6-1.5-0.9L160.9,84.6z"/>
			<path class="st1" d="M128.9,204.4L128.9,204.4L128.9,204.4L128.9,204.4C128.9,204.4,128.9,204.4,128.9,204.4L128.9,204.4
				L128.9,204.4L128.9,204.4l-0.1,0h0h0c0,0,0,0,0,0h0h0h0h0h0h0c0,0,0,0,0,0h0h0h0h0h0c-0.1,0-0.3,0-0.4,0l0,1.7c0.6,0,1.2,0,1.8,0
				l-0.1-1.7C129.6,204.4,129.3,204.4,128.9,204.4L128.9,204.4z"/>
			<path class="st1" d="M133.7,73.8c-0.6-0.1-1.2-0.1-1.7-0.1l-0.1,1.7c0.6,0,1.1,0.1,1.7,0.1L133.7,73.8z"/>
			<path class="st1" d="M133.4,204.1C133.4,204.1,133.4,204.1,133.4,204.1L133.4,204.1C133.4,204.1,133.4,204.1,133.4,204.1
				C133.4,204.1,133.4,204.1,133.4,204.1L133.4,204.1C133.4,204.1,133.4,204.1,133.4,204.1C133.3,204.1,133.3,204.1,133.4,204.1
				l-0.1,0c0,0,0,0,0,0c-0.4,0-0.9,0.1-1.3,0.1l0.1,1.7c0.6,0,1.2-0.1,1.7-0.1l-0.2-1.7C133.6,204.1,133.5,204.1,133.4,204.1
				L133.4,204.1z"/>
			<path class="st1" d="M167.2,88.9c0.4,0.3,0.7,0.6,1.1,0.8l0,0c0,0,0,0,0,0c0,0,0,0,0,0c0,0,0,0,0,0s0,0,0,0c0,0,0,0,0,0
				c0,0,0,0,0,0l0,0c0.1,0.1,0.1,0.1,0.2,0.2l1.1-1.3c-0.5-0.4-0.9-0.7-1.4-1.1L167.2,88.9z"/>
			<path class="st1" d="M164.1,86.7c0.3,0.2,0.6,0.4,0.9,0.6h0c0,0,0.1,0,0.1,0.1c0,0,0,0,0,0c0,0,0,0,0,0c0,0,0,0,0,0c0,0,0,0,0,0
				c0,0,0,0,0,0s0,0,0,0c0,0,0,0,0,0c0,0,0,0,0,0c0,0,0,0,0,0c0,0,0,0,0,0c0,0,0,0,0,0c0,0,0,0,0,0c0,0,0,0,0,0c0,0,0,0,0,0
				c0,0,0,0,0,0c0,0,0,0,0,0c0,0,0,0,0,0c0,0,0,0,0,0c0,0,0,0,0,0c0,0,0,0,0,0c0,0,0,0,0,0c0,0,0,0,0,0c0,0,0,0,0,0h0c0,0,0,0,0,0
				c0,0,0,0,0,0c0,0,0,0,0,0c0,0,0.1,0.1,0.1,0.1l1-1.4c-0.5-0.3-0.9-0.7-1.4-1L164.1,86.7z"/>
			<path class="st1" d="M185.9,108.6l-1.5,0.8c0.1,0.1,0.1,0.3,0.2,0.4c0,0,0,0,0,0c0,0,0,0,0,0c0,0,0,0,0,0l0,0c0,0,0,0,0,0
				c0.2,0.3,0.4,0.7,0.5,1l1.5-0.8C186.5,109.6,186.2,109.1,185.9,108.6z"/>
			<path class="st1" d="M72.5,105.9L72.5,105.9C72.5,105.9,72.5,105.9,72.5,105.9C72.5,105.8,72.5,105.8,72.5,105.9
				C72.5,105.8,72.5,105.8,72.5,105.9C72.5,105.8,72.5,105.8,72.5,105.9C72.5,105.8,72.5,105.8,72.5,105.9
				C72.5,105.8,72.5,105.8,72.5,105.9C72.5,105.8,72.5,105.8,72.5,105.9C72.5,105.8,72.5,105.8,72.5,105.9c0.1-0.1,0.1-0.1,0.1-0.1
				c0,0,0,0,0,0c0,0,0,0,0,0s0,0,0,0c0,0,0,0,0,0c0,0,0,0,0,0c0,0,0,0,0,0v0c0,0,0,0,0,0c0,0,0,0,0,0s0,0,0,0c0,0,0,0,0,0
				c0,0,0,0,0,0c0,0,0,0,0,0c0,0,0,0,0,0c0,0,0,0,0,0c0,0,0,0,0,0c0,0,0,0,0,0l-1.4-0.9c-0.3,0.5-0.6,1-0.9,1.5l1.5,0.9
				C72,106.6,72.2,106.2,72.5,105.9z"/>
			<path class="st1" d="M79.3,96.7C79.3,96.7,79.3,96.7,79.3,96.7C79.3,96.7,79.3,96.7,79.3,96.7C79.3,96.7,79.3,96.7,79.3,96.7
				C79.3,96.7,79.3,96.7,79.3,96.7C79.3,96.7,79.3,96.7,79.3,96.7L79.3,96.7C79.4,96.7,79.4,96.7,79.3,96.7
				C79.4,96.7,79.4,96.7,79.3,96.7c0.1-0.2,0.2-0.3,0.3-0.3l-1.3-1.1c-0.4,0.4-0.8,0.9-1.2,1.3l1.3,1.1C78.8,97.3,79,97,79.3,96.7z"
				/>
			<path class="st1" d="M76.5,100.1L76.5,100.1C76.5,100.1,76.5,100.1,76.5,100.1C76.5,100.1,76.5,100.1,76.5,100.1
				C76.5,100.1,76.5,100.1,76.5,100.1C76.5,100.1,76.5,100.1,76.5,100.1C76.5,100.1,76.5,100.1,76.5,100.1
				C76.5,100.1,76.5,100.1,76.5,100.1C76.5,100.1,76.5,100.1,76.5,100.1C76.5,100,76.5,100,76.5,100.1c0.1-0.1,0.1-0.1,0.1-0.1
				c0,0,0,0,0,0c0,0,0,0,0,0s0,0,0,0s0,0,0,0c0,0,0,0,0,0c0,0,0,0,0,0c0,0,0,0,0,0s0,0,0,0c0,0,0,0,0,0c0,0,0,0,0,0c0,0,0,0,0,0
				c0,0,0,0,0,0c0,0,0,0,0,0c0,0,0,0,0,0c0,0,0,0,0,0c0,0,0,0,0,0c0,0,0,0,0,0s0,0,0,0s0,0,0,0c0,0,0,0,0,0c0,0,0,0,0,0c0,0,0,0,0,0
				c0,0,0,0,0,0c0,0,0,0,0,0c0,0,0,0,0,0c0,0,0,0,0,0c0,0,0,0,0,0c0,0,0,0,0,0c0,0,0,0,0,0c0,0,0,0,0,0c0,0,0,0,0,0c0,0,0,0,0,0
				c0,0,0,0,0,0c0,0,0,0,0,0c0,0,0,0,0,0c0,0,0,0,0,0c0,0,0,0,0,0c0,0,0,0,0,0c0,0,0,0,0,0c0,0,0,0,0,0c0,0,0,0,0,0c0,0,0,0,0,0
				c0,0,0,0,0,0c0,0,0,0,0,0l0,0c0,0,0,0,0,0l0,0c0,0,0,0,0,0s0,0,0,0c0,0,0,0,0,0c0,0,0,0,0,0c0,0,0,0,0,0c0,0,0,0,0,0c0,0,0,0,0,0
				c0,0,0,0,0,0c0,0,0,0,0,0c0,0,0,0,0,0s0,0,0,0l0,0c0,0,0,0,0,0l0,0c0,0,0,0,0-0.1l0,0c0,0,0,0,0,0v0l-1.3-1.1
				c-0.4,0.5-0.7,0.9-1.1,1.4l1.4,1C76.2,100.5,76.3,100.3,76.5,100.1z"/>
			<path class="st1" d="M74.3,103.1L74.3,103.1C74.3,103,74.3,103,74.3,103.1L74.3,103.1C74.3,103,74.3,103,74.3,103.1L74.3,103.1
				C74.3,103,74.4,103,74.3,103.1C74.4,103,74.4,103,74.3,103.1c0.1-0.1,0.1-0.1,0.1-0.1s0,0,0,0c0,0,0,0,0,0c0,0,0,0,0,0l0,0
				c0,0,0,0,0,0h0c0,0,0,0,0,0l0,0c0,0,0,0,0,0c0,0,0,0,0,0c0.1-0.2,0.2-0.3,0.3-0.5l-1.4-1c-0.3,0.5-0.7,1-1,1.4l1.4,1
				C74,103.5,74.1,103.3,74.3,103.1z"/>
			<path class="st1" d="M70.1,110.1C70.1,110.1,70.1,110.1,70.1,110.1C70.1,110.1,70.1,110.1,70.1,110.1
				C70.1,110,70.1,110,70.1,110.1C70.1,110,70.1,110,70.1,110.1C70.1,110,70.1,110,70.1,110.1C70.1,110,70.1,110,70.1,110.1
				C70.1,110,70.1,110,70.1,110.1C70.1,110,70.1,110,70.1,110.1c0-0.1,0.1-0.1,0.1-0.1v0c0,0,0,0,0,0c0.2-0.3,0.3-0.6,0.5-0.9v0
				c0,0,0,0,0,0v0c0,0,0,0,0,0c0,0,0,0,0,0c0,0,0,0,0,0l0,0c0,0,0,0,0,0c0,0,0,0,0,0c0,0,0,0,0,0c0,0,0,0,0,0c0,0,0,0,0,0
				c0,0,0,0,0,0l-1.5-0.8c-0.3,0.5-0.6,1-0.8,1.5l1.5,0.8C70,110.3,70,110.2,70.1,110.1z"/>
			<path class="st1" d="M137.8,205.3l-0.3-1.7c-0.1,0-0.2,0-0.3,0h0c0,0,0,0,0,0c0,0,0,0,0,0c0,0,0,0,0,0c0,0,0,0,0,0
				c-0.3,0-0.5,0.1-0.8,0.1h0c0,0,0,0,0,0h0c0,0,0,0,0,0h0c0,0,0,0,0,0h0c0,0,0,0,0,0c0,0,0,0,0,0h0c0,0,0,0,0,0h0
				c-0.1,0-0.3,0-0.4,0.1l0.2,1.7C136.7,205.5,137.2,205.4,137.8,205.3z"/>
			<path class="st1" d="M68.4,113.5C68.4,113.5,68.4,113.5,68.4,113.5C68.4,113.5,68.4,113.5,68.4,113.5
				C68.4,113.5,68.4,113.5,68.4,113.5C68.4,113.5,68.4,113.5,68.4,113.5C68.4,113.5,68.4,113.5,68.4,113.5
				C68.4,113.5,68.4,113.4,68.4,113.5C68.4,113.4,68.4,113.4,68.4,113.5L68.4,113.5c0-0.1,0-0.1,0-0.1c0.1-0.3,0.3-0.7,0.5-1
				c0,0,0,0,0,0c0,0,0,0,0,0c0,0,0,0,0,0c0,0,0,0,0,0c0,0,0,0,0,0c0,0,0,0,0,0c0,0,0,0,0,0s0,0,0,0c0,0,0,0,0,0c0,0,0,0,0,0
				l-1.5-0.7c-0.3,0.5-0.5,1.1-0.7,1.6l1.6,0.7C68.3,113.7,68.4,113.6,68.4,113.5z"/>
			<path class="st1" d="M183.9,105.1l-1.5,0.9c0.1,0.1,0.2,0.3,0.3,0.4c0,0,0,0,0,0c0,0,0,0,0,0c0,0,0,0,0,0c0,0,0,0,0,0
				c0,0,0,0,0,0c0,0,0,0,0,0c0,0,0,0,0,0c0,0,0,0,0,0c0,0,0,0,0,0l0,0c0,0,0,0,0,0c0.1,0.1,0.2,0.3,0.2,0.4v0c0,0,0,0,0,0
				c0,0,0,0,0,0c0,0,0,0,0,0c0,0,0,0,0,0s0,0,0,0c0,0,0,0,0,0s0,0,0,0c0,0,0,0,0,0c0,0,0,0,0,0c0,0,0,0,0,0v0
				c0.1,0.1,0.2,0.3,0.2,0.4l1.5-0.9C184.5,106.1,184.2,105.6,183.9,105.1z"/>
			<path class="st1" d="M186.1,112.8c0,0.1,0.1,0.2,0.1,0.3c0,0,0,0,0,0c0,0,0,0,0,0c0,0,0,0,0,0l0,0c0,0,0,0,0,0v0
				c0.2,0.4,0.4,0.8,0.5,1.2l1.6-0.7c-0.2-0.5-0.5-1.1-0.7-1.6L186.1,112.8z"/>
			<path class="st1" d="M81.4,94.5L81.4,94.5C81.4,94.5,81.4,94.4,81.4,94.5L81.4,94.5c0.1-0.1,0.1-0.1,0.1-0.1c0,0,0,0,0,0s0,0,0,0
				l0,0c0,0,0,0,0,0c0,0,0,0,0,0s0,0,0,0c0,0,0,0,0,0c0,0,0,0,0,0c0,0,0,0,0,0c0,0,0,0,0,0c0,0,0,0,0,0c0,0,0,0,0,0c0,0,0,0,0,0
				c0,0,0,0,0,0c0,0,0,0,0,0c0,0,0,0,0,0c0,0,0,0,0,0c0,0,0,0,0,0c0,0,0,0,0,0c0,0,0,0,0,0c0,0,0,0,0,0c0,0,0,0,0,0c0,0,0,0,0,0
				s0,0,0,0c0,0,0,0,0,0c0,0,0,0,0,0c0,0,0,0,0,0c0,0,0,0,0,0c0.2-0.2,0.4-0.4,0.5-0.5l-1.2-1.2c-0.4,0.4-0.8,0.8-1.2,1.2l1.2,1.2
				C81.2,94.7,81.3,94.6,81.4,94.5z"/>
			<path class="st1" d="M181.8,101.8l-1.4,1c0.2,0.3,0.4,0.6,0.7,1l0,0c0,0,0,0,0,0l0,0c0,0,0,0,0,0c0,0,0,0,0,0c0,0,0,0,0,0
				c0,0,0,0,0,0l0,0c0.1,0.1,0.2,0.3,0.3,0.4l1.4-0.9C182.4,102.8,182.1,102.3,181.8,101.8z"/>
			<path class="st1" d="M94,84.5L94,84.5C94,84.5,94.1,84.5,94,84.5C94.1,84.5,94.1,84.5,94,84.5C94.1,84.5,94.1,84.5,94,84.5
				L94,84.5C94.1,84.5,94.1,84.5,94,84.5C94.1,84.5,94.1,84.5,94,84.5C94.1,84.5,94.1,84.5,94,84.5L94,84.5c0.1-0.1,0.1-0.1,0.1-0.1
				c0,0,0,0,0,0s0,0,0,0s0,0,0,0c0,0,0,0,0,0c0,0,0,0,0,0l0,0c0,0,0,0,0,0l0,0c0,0,0,0,0,0h0c0,0,0,0,0,0h0c0,0,0.1-0.1,0.1-0.1
				l-0.9-1.5c-0.5,0.3-1,0.6-1.5,0.9l0.9,1.4C93.3,84.9,93.7,84.7,94,84.5z"/>
			<path class="st1" d="M84,92L84,92C84,92,84,92,84,92C84,92,84,92,84,92C84,92,84,92,84,92C84,92,84,92,84,92C84,92,84,92,84,92
				C84,92,84,92,84,92C84,92,84,92,84,92c0.4-0.3,0.7-0.6,1-0.9h0c0,0,0,0,0,0c0,0,0,0,0,0c0,0,0,0,0,0c0,0,0,0,0,0l0,0
				c0,0,0.1-0.1,0.1-0.1L84,89.7c-0.4,0.4-0.9,0.8-1.3,1.2l1.2,1.3C83.9,92.1,83.9,92.1,84,92z"/>
			<path class="st1" d="M86.8,89.6c0.4-0.3,0.8-0.6,1.2-0.9h0c0,0,0,0,0,0l0,0c0,0,0,0,0,0l0,0c0,0,0,0,0,0c0,0,0,0,0,0c0,0,0,0,0,0
				c0,0,0,0,0,0c0,0,0,0,0,0c0,0,0,0,0,0c0,0,0,0,0,0l-1-1.4c-0.5,0.4-0.9,0.7-1.4,1.1L86.8,89.6C86.8,89.6,86.8,89.6,86.8,89.6z"/>
			<path class="st1" d="M91.1,86.4L91.1,86.4C91.1,86.4,91.1,86.4,91.1,86.4C91.1,86.4,91.1,86.4,91.1,86.4
				C91.1,86.4,91.1,86.4,91.1,86.4c0.1,0,0.1-0.1,0.1-0.1l-1-1.4c-0.5,0.3-1,0.7-1.4,1l1,1.4C90.2,87,90.7,86.7,91.1,86.4z"/>
			<path class="st1" d="M171.7,195.3l1.6,1.2c0.3-0.4,0.7-0.9,1.1-1.3l-1.5-1.4C172.4,194.3,172,194.8,171.7,195.3z"/>
			<path class="st1" d="M190,191.3c0.5,0.2,1,0.4,1.5,0.6l0.9-1.8c-0.6-0.3-1.2-0.5-1.8-0.7L190,191.3z"/>
			<path class="st1" d="M186.4,190.6c0.5,0,1.1,0.1,1.7,0.2l0.4-2c-0.6-0.1-1.3-0.2-1.9-0.3L186.4,190.6z"/>
			<path class="st1" d="M182.3,188.8l0.3,2c0.5-0.1,1.1-0.2,1.7-0.2l-0.1-2C183.5,188.6,182.9,188.7,182.3,188.8z"/>
			<path class="st1" d="M174.6,192.2l1.3,1.6c0.4-0.4,0.9-0.7,1.4-1l-1.1-1.7C175.6,191.5,175.1,191.8,174.6,192.2z"/>
			<path class="st1" d="M178.2,190l0.8,1.8c0.5-0.2,1-0.4,1.6-0.6l-0.6-1.9C179.4,189.5,178.8,189.7,178.2,190z"/>
			<path class="st1" d="M36.8,136.1l-0.9-1.8c-0.5,0.3-1,0.5-1.6,0.8l0.9,1.8C35.7,136.7,36.3,136.4,36.8,136.1z"/>
			<path class="st1" d="M40.4,134l-1.1-1.7c-0.5,0.3-1,0.6-1.5,1l1,1.7C39.4,134.7,39.9,134.3,40.4,134z"/>
			<path class="st1" d="M43.8,131.5l-1.3-1.5c-0.5,0.4-0.9,0.7-1.4,1.1l1.2,1.6C42.8,132.3,43.3,131.9,43.8,131.5z"/>
			<path class="st1" d="M46.9,128.6l-1.4-1.4c-0.4,0.4-0.8,0.8-1.3,1.2l1.4,1.5C46,129.5,46.4,129.1,46.9,128.6z"/>
			<path class="st1" d="M198.7,88.4l1.9,0.6c0.2-0.5,0.3-1.1,0.5-1.6l-1.8-0.6C199.1,87.3,198.9,87.8,198.7,88.4z"/>
			<path class="st1" d="M200.1,84.6l1.8,0.7c0.2-0.5,0.4-1,0.7-1.6l-1.7-0.8C200.6,83.5,200.3,84.1,200.1,84.6z"/>
			<path class="st1" d="M205.5,78.6c0.3-0.5,0.6-0.9,1-1.4l-1.6-1.1c-0.4,0.5-0.7,1-1,1.5L205.5,78.6z"/>
			<path class="st1" d="M201.8,81l1.7,0.9c0.3-0.5,0.5-1,0.8-1.5l-1.7-1C202.4,79.9,202.1,80.5,201.8,81z"/>
			<path class="st1" d="M212.4,131.3c0.5,0.4,0.9,0.7,1.4,1.1l1.1-1.6c-0.5-0.3-0.9-0.7-1.4-1L212.4,131.3z"/>
			<path class="st1" d="M215.7,133.6c0.5,0.3,1,0.6,1.5,0.9l1-1.7c-0.5-0.3-1-0.6-1.5-0.9L215.7,133.6z"/>
			<path class="st1" d="M219.2,135.5c0.5,0.3,1.1,0.5,1.6,0.8l0.8-1.8c-0.5-0.2-1-0.5-1.5-0.7L219.2,135.5z"/>
			<path class="st1" d="M209.4,128.6c0.4,0.4,0.9,0.8,1.3,1.2l1.3-1.5c-0.4-0.4-0.8-0.8-1.3-1.1L209.4,128.6z"/>
			<path class="st1" d="M232.6,60.5l1.1-0.3l-1.4-2.2l-0.8,0.1c-1.3,0.2-2.9,0.4-4.8,0.9V31.7H28.4v27.4c-2-0.5-3.8-0.8-5.1-1
				l-0.8,0l-1.4,2.2l1.8,0.3c1.7,0.3,3.6,0.8,5.5,1.7V230h198.3V62.3c1.9-0.7,3.9-1.3,5.9-1.6L232.6,60.5z M199.9,194.9
				c-0.7-1.4-1.5-2.8-2.5-4.1c4.5-7.4,7.7-15.1,9.7-22.4c4.5-16.3,2-33.1-0.4-42.6c0.4,0.4,0.8,0.9,1.2,1.3l1.4-1.3
				c-0.4-0.4-0.8-0.8-1.1-1.3l-1.4,1.2c-0.2-0.8-0.4-1.6-0.6-2.3l0.8-0.6c-0.3-0.4-0.7-0.9-1-1.4l-0.3,0.2c-0.3-0.9-0.6-1.6-0.8-2.2
				c-0.5-1.2-1-2.4-1.5-3.5c-2.5-5.7-4.8-10.7-3.8-19.1c3.2,4.8,8.8,8.2,9,8.4l0.1,0.1c3.1,6.3,8.3,11.5,15.1,14.6
				c0.2,1.7,0.3,3.4,0.4,5.1h-0.9c-0.6,0-1,0.4-1,1c0,0.6,0.4,1,1,1h1c0.1,1.3,0.1,2.6,0.1,3.9c0,1.6,0,3.1-0.1,4.7
				c-0.2-0.1-0.3-0.1-0.5-0.2l-0.7,1.8c0.4,0.1,0.7,0.3,1.1,0.4c0,0.2,0,0.5,0,0.7h-0.8c-0.6,0-1,0.4-1,1c0,0.6,0.4,1,1,1h0.6
				C221.7,161.1,213,180,199.9,194.9z M216.8,65.4L216.8,65.4c-0.5,0.3-1,0.6-1.5,0.9l0.2,0.3c-0.5,0.5-1,1.1-1.5,1.6l-0.5-0.7
				c-0.5,0.4-1,0.7-1.4,1.1l0.8,1c-0.4,0.6-0.9,1.2-1.3,1.8l-1.2-1.3c-0.4,0.4-0.9,0.8-1.3,1.2l1.4,1.4c0.2-0.2,0.5-0.4,0.7-0.6
				c-0.5,0.8-1,1.6-1.5,2.5c-0.1,0.2-0.2,0.4-0.3,0.6c-0.2-0.2-0.3-0.5-0.5-0.7c0.1-0.1,0.1-0.1,0.2-0.2l-0.7-0.7
				c-0.4-0.6-0.9-1.2-1.3-1.8c3.5-3.1,7.3-5.4,10.8-7.1C217.4,64.9,217.1,65.2,216.8,65.4z M208.1,77.5c-4.3,9.8-3.1,18.5-1.7,23.3
				c-2.4-1.9-5.5-4.9-6.6-8.3l-0.1-0.2c0.1-0.4,0.2-0.8,0.3-1.3l-0.8-0.2l-0.9-2.6l-0.9,4.4c-2.3,11.5,0.4,17.7,3.4,24.2
				c0.5,1.1,1,2.3,1.5,3.4c2.4,5.8,8,27,2.4,47.4c-1.9,7-4.9,14.2-9.1,21.2c-4.2-4.5-10.2-7.3-16.8-7.3c0.2-0.3,0.4-0.5,0.6-0.8l0,0
				c0.4-0.5,0.7-0.9,1.1-1.4l0,0c7.6-9.9,12.9-22,13.4-34.6c0.3-5.8,0-11.3-0.8-17.2c-0.2-1.2-0.4-2.6-0.6-4
				c-0.8-5-1.8-11.2-1.5-15.9c1.2-16.5,7.1-27.3,14.1-34.3C206.2,74.7,207.2,76.1,208.1,77.5z M197.3,196.7l0.7-0.5
				c0.1,0.2,0.2,0.3,0.2,0.5c-6.4,6.9-13.8,12.8-21.9,17.6c8.1-6.1,14.7-13.5,19.8-21.4c0.4,0.5,0.7,1.1,1.1,1.7l-0.9,0.9
				C196.6,195.8,196.9,196.3,197.3,196.7z M127.4,75.2L127.4,75.2L127.4,75.2L127.4,75.2L127.4,75.2l0.1-1.7c0,0,0,0-0.1,0V36.6
				l0.1-0.1l26.1,41.7c-1.6-0.7-3.7-1.5-6.4-2.3c-5.2-1.6-10.1-2-10.3-2l-1.3-0.1v114.4c0,8.3,1.1,12.9,3.6,14.8
				c0.2,0.1,0.4,0.3,0.6,0.4l0.3,1.5c0.6-0.1,1.1-0.2,1.7-0.4l-0.1-0.5c0.7,0.1,1.5,0.1,2.2,0l0,0c0,0,0.1,0,0.1,0
				c1-0.1,2.1-0.4,3.1-0.7c2.6-0.7,5.2-1.6,7.8-2.9c0,2.2,0,3.9,0,5.1c0,5.1,2,10.7,5.8,15.1c-9.5,4.3-20.6,6.9-33.3,6.9
				c0,0,0,0-0.1,0V75.2z M172.8,213.8c-0.3-0.4-0.5-0.8-0.7-1.2l-0.1,0c-0.3-0.6-0.6-1.3-0.9-1.9l0.1,0c-0.2-0.5-0.4-1-0.5-1.6
				l-0.1,0c-0.2-0.7-0.3-1.4-0.4-2.1l0.1,0c-0.1-0.6-0.1-1.1-0.1-1.7v-0.1l-0.1,0c0-0.5,0-1.2,0-2.1l0.2,0c0.1-0.5,0.2-1.1,0.3-1.6
				l-0.6-0.1c0-0.7,0-1.5,0-2.3l1.2,0.5c0.2-0.5,0.5-1,0.7-1.5l-1.8-1c-0.1,0.1-0.1,0.3-0.2,0.4c0-2.1,0-4.5,0-7.2
				c0.4-0.4,0.8-0.7,1.3-1.1l0,0c0.4-0.4,0.9-0.8,1.3-1.2l0,0c0.5-0.5,1-1,1.6-1.5l0,0c0.4-0.4,0.8-0.8,1.2-1.3l0,0
				c0.5-0.5,0.9-1,1.4-1.5c0.6,0,1.1-0.1,1.7-0.1c6.3,0,11.9,2.7,15.9,7.1C189,199.4,181.9,207.4,172.8,213.8z M170.2,187.3
				c0-0.6,0-1.2,0-1.8c0.9-0.4,1.9-0.7,2.8-1C172.1,185.5,171.1,186.4,170.2,187.3z M191.6,144.6c-0.6,13.9-7.1,26.9-16,37.1
				c-1.9,0.2-3.7,0.7-5.4,1.4c0-18.5,0-41.4,0-41.4l21.5-0.1C191.7,142.6,191.7,143.6,191.6,144.6z M154.9,197.8
				c-2.8,1.4-5.7,2.4-8.5,3.2c-2.7,0.7-4.6,1.1-5.8,0.1c-1.8-1.4-2.6-5.6-2.6-12.8v-46.6h16.9C154.9,141.7,154.9,179.6,154.9,197.8z
				 M188.6,107.4c-0.2,2.6,0,5.5,0.3,8.4l-1.4,0.5c0.2,0.5,0.4,1.1,0.6,1.6l1-0.4c0.1,0.7,0.2,1.5,0.3,2.2l-0.6,0.2
				c0,0.1,0.1,0.3,0.1,0.4c0,0,0,0,0,0c0,0,0,0,0,0c0,0,0,0,0,0c0,0,0,0,0,0c0,0,0,0,0,0c0,0,0,0,0,0c0,0,0,0,0,0s0,0,0,0
				c0,0,0,0,0,0s0,0,0,0c0,0,0,0,0,0c0,0,0,0,0,0c0,0,0,0,0,0c0,0,0,0,0,0c0,0,0,0,0,0c0,0,0,0,0,0c0,0,0,0,0,0v0
				c0.1,0.3,0.2,0.7,0.3,1l0.4-0.1c0.1,0.7,0.2,1.4,0.3,2.1l-0.1,0c0.1,0.3,0.1,0.5,0.2,0.8c0,0.1,0,0.1,0.1,0.2v0c0,0,0,0,0,0v0
				c0,0,0,0,0,0c0,0,0,0,0,0c0,0,0,0,0,0c0,0,0,0,0,0c0,0,0,0,0,0c0,0,0,0,0,0c0,0,0,0,0,0c0,0,0,0,0,0s0,0,0,0c0,0,0,0,0,0l0,0
				c0,0,0,0,0,0c0,0.2,0.1,0.3,0.1,0.5l0,0c0.1,0.9,0.3,1.8,0.4,2.6c0.4,2.7,0.6,5.3,0.8,7.9l-21.4,0.1l0.1-25.5h-2
				c-1.5,5-3.8,11.1-8.9,16.9c-7.1,8.1-16.4,11.1-21.4,12.3V76.5c1.7,0.2,5,0.7,8.4,1.8c6.5,2.1,9.7,3.9,9.7,3.9l4.3,2.5l-1.1-1.7
				l0.6-1c-0.5-0.3-1-0.6-1.5-0.8l-0.1,0.2l-29.5-47.3c30.4,0.4,57.5,14.9,75,37.3C196.2,78.7,189.9,90,188.6,107.4z M96.8,81
				c-0.4,0.2-0.9,0.5-1.3,0.7l0.4,0.7l-1.4,2.3l4.3-2.5c0,0,3.2-1.9,9.7-3.9c3.4-1.1,6.6-1.6,8.4-1.8v111.8c0,7.3-0.9,11.5-2.6,12.8
				c-1.2,1-3.1,0.6-5.8-0.1c-20.8-5.5-43.9-29.4-45.2-56.4c-0.3-5.7,0-11,0.8-16.8c0.1-1,0.3-2,0.5-3.1l0.1,0
				c0.1-0.2,0.1-0.5,0.2-0.7c0,0,0,0,0,0c0,0,0,0,0,0v0c0,0,0,0,0,0c0,0,0,0,0,0c0,0,0,0,0,0c0,0,0,0,0,0c0,0,0,0,0,0s0,0,0,0
				c0,0,0,0,0,0c0,0,0,0,0,0c0,0,0,0,0,0c0,0,0,0,0,0s0,0,0,0c0.1-0.3,0.1-0.5,0.2-0.7l-0.2-0.1c0.1-0.7,0.2-1.4,0.3-2.1l0.4,0.1
				c0-0.1,0.1-0.2,0.1-0.3v0c0,0,0,0,0,0c0,0,0,0,0,0c0,0,0,0,0,0c0,0,0,0,0,0c0,0,0,0,0,0c0,0,0,0,0,0c0,0,0,0,0,0s0,0,0,0
				c0.1-0.3,0.2-0.6,0.3-0.8l0,0c0,0,0,0,0,0v0c0,0,0,0,0,0v0c0,0,0,0,0,0l0,0c0,0,0,0,0,0c0,0,0,0,0,0c0,0,0,0,0,0c0,0,0,0,0,0
				c0,0,0,0,0,0c0,0,0,0,0,0c0,0,0,0,0,0c0,0,0,0,0,0c0,0,0,0,0,0c0,0,0,0,0,0c0,0,0-0.1,0-0.1h0c0,0,0,0,0,0c0,0,0,0,0,0
				c0,0,0,0,0,0l0,0c0,0,0,0,0,0c0,0,0,0,0,0c0,0,0,0,0,0c0,0,0,0,0,0c0,0,0,0,0,0c0,0,0,0,0,0c0,0,0,0,0,0v0c0,0,0,0,0,0l-0.7-0.2
				c0.1-0.7,0.2-1.5,0.3-2.2l1.1,0.4c0.1-0.2,0.2-0.5,0.3-0.7c0,0,0,0,0,0c0,0,0,0,0,0c0,0,0,0,0,0c0,0,0,0,0,0c0,0,0,0,0,0
				c0,0,0,0,0,0c0,0,0,0,0,0s0,0,0,0c0,0,0,0,0,0c0,0,0,0,0,0c0,0,0,0,0,0c0,0,0,0,0,0c0,0,0,0,0,0c0,0,0,0,0,0c0,0,0,0,0,0
				c0.1-0.2,0.2-0.5,0.3-0.7l-1.5-0.6c0.3-2.7,0.4-5.4,0.3-7.8C65,90,58.7,78.7,51.1,71.3c17.5-22.4,44.5-36.9,75-37.3L96.8,81z
				 M44.8,103.6l-1.3,2.8c-2.8,4.6-6.9,8.5-11.9,11.1c1.9-13.4,6.5-26,13.2-37C49.4,93.1,44.8,103.4,44.8,103.6z M32.3,136.1
				c-0.5,0.2-1,0.4-1.5,0.6c-0.1-1.9-0.2-3.9-0.2-5.8c0-3.6,0.2-7.2,0.6-10.7c6.9-3.2,12.3-8.6,15.5-15.2c1.2-0.8,5.6-3.9,8.5-8.2
				c0.7,9.2-1.5,14.3-4,20c-0.4,0.9-0.8,1.8-1.1,2.7c-0.5,1.2-1.1,2.9-1.7,5.2l-0.4-0.3c-0.4,0.5-0.8,0.9-1.1,1.4l1,0.9
				c-2.4,9.7-4.6,26-0.2,41.8c4.4,16.1,14.5,33.6,30.8,45.9c-26.8-15.8-45.4-44.1-47.6-76.9l0.4,1.2c0.6-0.2,1.2-0.4,1.7-0.7
				L32.3,136.1z M147.7,227.7c5.3-1.1,10.5-2.6,15.4-4.6c1.9,1.7,4.2,3,6.9,4c1.2,0.5,2.5,0.9,3.8,1.1H145
				C145.9,228.1,146.8,227.9,147.7,227.7z M199.9,203.1c0.1,0.7,0.1,1.4,0.1,2c0,1.5-0.1,2.9-0.4,4.2l0,0c-0.1,0.5-0.3,1.1-0.5,1.6
				l0,0c-0.2,0.6-0.5,1.3-0.9,1.9l0,0c-0.3,0.5-0.6,1-0.9,1.4l0,0c-1.4,1.8-3.2,3.4-5.8,4.5c-1.7,0.7-3.7,1.2-6.1,1.2
				c-4,0-7.2-1.1-9.5-2.8c8.5-4.8,16.2-10.8,22.9-17.7c0.1,0.2,0.2,0.4,0.3,0.7l0.2-0.1c0.2,0.7,0.3,1.4,0.4,2.1l0,0
				C199.8,202.3,199.8,202.7,199.9,203.1z M224.9,113.9c0-0.1,0-0.1,0-0.2h0V113.9z M222.6,113.6c0.2,1.2,0.4,2.4,0.6,3.6
				c-6.8-3.6-11.7-9.4-14.2-16.3c-1.2-3.9-2.8-11.8,0.7-20.9c6,9.7,10.4,20.5,12.6,32.1c-0.1,0.2-0.2,0.4-0.2,0.6
				C222.1,113.1,222.3,113.4,222.6,113.6z M224.9,45.4h-1.8c-0.6,0-1,0.4-1,1c0,0.6,0.4,1,1,1h1.8v11.2h-1.8c-0.6,0-1,0.4-1,1
				c0,0.2,0.1,0.4,0.2,0.6c-5.2,1.7-11.3,4.6-17,9.6c-14.6-18.7-35.8-31.9-60-36.4h79.6V45.4z M30.1,33.5h79.4
				c-24.2,4.4-45.4,17.7-60,36.4c-6.5-5.8-13.8-8.7-19.4-10.3V33.5z M42.6,75.7c0.4,0.8,0.8,1.5,1.1,2.3
				c-6.6,10.4-11.3,22.1-13.6,34.6V63.1C34.5,65.3,39.1,69.1,42.6,75.7z M30.1,149.1c7.4,39.3,38,70.5,77,78.6
				c0.9,0.2,1.8,0.4,2.7,0.6H30.1V149.1z M224.9,164.7h-1.8c-0.6,0-1,0.4-1,1s0.4,1,1,1h1.8V178h-1.8c-0.6,0-1,0.4-1,1s0.4,1,1,1
				h1.8v11.3h-1.8c-0.6,0-1,0.4-1,1c0,0.6,0.4,1,1,1h1.8v11.3h-1.8c-0.6,0-1,0.4-1,1s0.4,1,1,1h1.8v11.3h-1.8c-0.6,0-1,0.4-1,1
				c0,0.6,0.4,1,1,1h1.8v8.6h-41.5c1-0.2,2-0.5,3-0.8c2.8-0.9,5.1-2.3,7-3.9c0.1-0.1,0.2-0.2,0.4-0.3c1.2-1,2.3-2.1,3.2-3.4
				c0.1-0.1,0.2-0.3,0.3-0.4c0-0.1,0.1-0.1,0.1-0.2c1.8-2.3,2.8-4.6,3.5-6.9c0-0.1,0-0.1,0.1-0.2c0-0.1,0.1-0.2,0.1-0.3
				c0.6-2.1,0.9-4.3,0.9-6.6c0-2.8-0.5-5.5-1.4-8c11-12.2,19.1-27.1,23-43.7h1.2V164.7z M224.2,151.5c0.3-1.2,0.5-2.5,0.7-3.7v3.7
				H224.2z M224.9,71.9h-1.8c-0.6,0-1,0.4-1,1c0,0.5,0.4,1,1,1h1.8v11.3h-1.8c-0.6,0-1,0.4-1,1s0.4,1,1,1h1.8v11.3h-1.8
				c-0.6,0-1,0.4-1,1c0,0.6,0.4,1,1,1h1.8v11.3h-0.4c-2.4-12.4-7.2-23.9-13.7-34.2c0.3-0.6,0.6-1.1,0.9-1.7c1.4-2.6,3-4.7,4.7-6.5
				c1.4-1.4,2.9-2.7,4.5-3.8c0.1-0.1,0.2-0.1,0.4-0.2l0-0.1c1.2-0.8,2.5-1.5,3.8-2.2V71.9z"/>
		</g>
	</g>
	<g>
		<path class="st1" d="M246.5,324.2c0-1.9,0.6-3.5,1.9-4.8s2.8-2,4.6-2c1.8,0,3.3,0.7,4.5,2s1.9,2.9,1.9,4.8c0,1.9-0.6,3.5-1.9,4.8
			s-2.8,2-4.5,2c-1.8,0-3.3-0.7-4.6-2S246.5,326.1,246.5,324.2z M247.6,324.2c0,1.6,0.5,3,1.6,4.1c1,1.1,2.3,1.6,3.8,1.6
			c1.5,0,2.7-0.5,3.8-1.6c1-1.1,1.6-2.4,1.6-4c0-1.6-0.5-2.9-1.6-4c-1-1.1-2.3-1.6-3.8-1.6c-1.5,0-2.7,0.5-3.8,1.6
			C248.1,321.3,247.6,322.6,247.6,324.2z M251.6,324.9v3.1h-1.3v-7.7h2.5c0.9,0,1.6,0.2,2.2,0.6c0.5,0.4,0.8,1,0.8,1.7
			c0,0.4-0.1,0.7-0.3,1c-0.2,0.3-0.5,0.5-0.9,0.7c0.4,0.2,0.7,0.4,0.9,0.7c0.2,0.3,0.3,0.7,0.3,1.2v0.5c0,0.2,0,0.5,0,0.7
			c0,0.2,0.1,0.4,0.1,0.5v0.1h-1.4c-0.1-0.1-0.1-0.3-0.1-0.6c0-0.2,0-0.5,0-0.7v-0.5c0-0.4-0.1-0.8-0.3-1c-0.2-0.2-0.5-0.3-1-0.3
			H251.6z M251.6,323.7h1.4c0.4,0,0.7-0.1,1-0.3c0.3-0.2,0.4-0.5,0.4-0.8c0-0.4-0.1-0.8-0.4-0.9c-0.2-0.2-0.7-0.3-1.2-0.3h-1.2
			V323.7z"/>
	</g>
</g>
</svg>
