<?xml version="1.0" encoding="UTF-8" standalone="no"?>
<!-- Generator: Adobe Illustrator 22.0.0, SVG Export Plug-In . SVG Version: 6.00 Build 0)  -->

<svg
   xmlns:dc="http://purl.org/dc/elements/1.1/"
   xmlns:cc="http://creativecommons.org/ns#"
   xmlns:rdf="http://www.w3.org/1999/02/22-rdf-syntax-ns#"
   xmlns:svg="http://www.w3.org/2000/svg"
   xmlns="http://www.w3.org/2000/svg"
   xmlns:sodipodi="http://sodipodi.sourceforge.net/DTD/sodipodi-0.dtd"
   xmlns:inkscape="http://www.inkscape.org/namespaces/inkscape"
   version="1.1"
   id="Layer_1"
   x="0px"
   y="0px"
   viewBox="0 0 1253.7 411.4"
   style="enable-background:new 0 0 1253.7 411.4;"
   xml:space="preserve"
   sodipodi:docname="WinR-Logo-White.svg"
   inkscape:version="0.92.3 (2405546, 2018-03-11)"><metadata
   id="metadata4657"><rdf:RDF><cc:Work
       rdf:about=""><dc:format>image/svg+xml</dc:format><dc:type
         rdf:resource="http://purl.org/dc/dcmitype/StillImage" /></cc:Work></rdf:RDF></metadata><defs
   id="defs4655" /><sodipodi:namedview
   pagecolor="#ffffff"
   bordercolor="#666666"
   borderopacity="1"
   objecttolerance="10"
   gridtolerance="10"
   guidetolerance="10"
   inkscape:pageopacity="0"
   inkscape:pageshadow="2"
   inkscape:window-width="1853"
   inkscape:window-height="1025"
   id="namedview4653"
   showgrid="false"
   inkscape:zoom="1.3416288"
   inkscape:cx="705.72294"
   inkscape:cy="235.74284"
   inkscape:window-x="67"
   inkscape:window-y="27"
   inkscape:window-maximized="1"
   inkscape:current-layer="Layer_1" />
<style
   type="text/css"
   id="style4213">
	.st0{fill:url(#SVGID_1_);}
	.st1{fill:url(#SVGID_2_);}
	.st2{fill:url(#SVGID_3_);}
	.st3{fill:url(#SVGID_4_);}
	.st4{fill:url(#SVGID_5_);}
	.st5{fill:#232323;}
	.st6{fill:#F7F7F7;}
	.st7{fill:url(#SVGID_6_);}
	.st8{fill:url(#SVGID_7_);}
	.st9{fill:url(#SVGID_8_);}
	.st10{opacity:0.7274;fill:url(#SVGID_9_);enable-background:new    ;}
	.st11{opacity:0.7274;fill:url(#SVGID_10_);enable-background:new    ;}
	.st12{fill:url(#SVGID_11_);}
	.st13{fill:url(#SVGID_12_);}
	.st14{fill:url(#SVGID_13_);}
	.st15{fill:#FFFFFF;}
	.st16{fill:url(#SVGID_14_);}
	.st17{fill:url(#SVGID_15_);}
	.st18{fill:url(#SVGID_16_);}
	.st19{opacity:0.7274;fill:url(#SVGID_17_);enable-background:new    ;}
	.st20{opacity:0.7274;fill:url(#SVGID_18_);enable-background:new    ;}
	.st21{fill:url(#SVGID_19_);}
	.st22{fill:url(#SVGID_20_);}
	.st23{fill:url(#SVGID_21_);}
	.st24{fill:url(#SVGID_22_);}
	.st25{fill:url(#SVGID_23_);}
	.st26{fill:url(#SVGID_24_);}
	.st27{opacity:0.7274;fill:url(#SVGID_25_);enable-background:new    ;}
	.st28{fill:url(#SVGID_26_);}
	.st29{fill:url(#SVGID_27_);}
	.st30{fill:url(#SVGID_28_);}
	.st31{opacity:0.7274;fill:url(#SVGID_29_);enable-background:new    ;}
	.st32{fill:url(#SVGID_30_);}
	.st33{fill:url(#SVGID_31_);}
	.st34{fill:url(#SVGID_32_);}
</style>
<rect
   id="rect4663"
   width="1252.2092"
   height="409.94943"
   x="0.74536508"
   y="0.70518321"
   style="stroke-width:3.38141203" /><g
   id="Logos">
	<g
   id="WIN_Logo_White_1_">
		
			<linearGradient
   id="SVGID_1_"
   gradientUnits="userSpaceOnUse"
   x1="8083.8999"
   y1="-826.101"
   x2="8083.8999"
   y2="-600.1011"
   gradientTransform="matrix(1 0 0 -1 0 414)">
			<stop
   offset="0"
   style="stop-color:#232323"
   id="stop4215" />
			<stop
   offset="0.1741"
   style="stop-color:#424242;stop-opacity:0.8259"
   id="stop4217" />
			<stop
   offset="0.5566"
   style="stop-color:#939393;stop-opacity:0.4434"
   id="stop4219" />
			<stop
   offset="1"
   style="stop-color:#F7F7F7;stop-opacity:0"
   id="stop4221" />
		</linearGradient>
		<path
   class="st0"
   d="M8094.2,1207.6l-16.9-10.7c-2,0-3.2-0.7-3.7-1.1v-195.1c0-10.6,9.2-19.1,20.6-19.1l0,0V1207.6z"
   id="path4224" />
		
			<linearGradient
   id="SVGID_2_"
   gradientUnits="userSpaceOnUse"
   x1="7950.4004"
   y1="-594.3452"
   x2="7950.4004"
   y2="-814.8451"
   gradientTransform="matrix(1 0 0 -1 0 414)">
			<stop
   offset="0"
   style="stop-color:#232323"
   id="stop4226" />
			<stop
   offset="0.1741"
   style="stop-color:#424242;stop-opacity:0.8259"
   id="stop4228" />
			<stop
   offset="0.5566"
   style="stop-color:#939393;stop-opacity:0.4434"
   id="stop4230" />
			<stop
   offset="1"
   style="stop-color:#F7F7F7;stop-opacity:0"
   id="stop4232" />
		</linearGradient>
		<path
   class="st1"
   d="M7940.1,1268.6L7940.1,1268.6c11.4,0,20.6-9.2,20.6-20.6v-197.7c0-0.9-1.5-2.2-3.7-2.2h-16.9V1268.6z"
   id="path4235" />
		
			<linearGradient
   id="SVGID_3_"
   gradientUnits="userSpaceOnUse"
   x1="7668.1001"
   y1="-718.45"
   x2="8003.7998"
   y2="-718.45"
   gradientTransform="matrix(1 0 0 -1 0 414)">
			<stop
   offset="0"
   style="stop-color:#232323;stop-opacity:0"
   id="stop4237" />
			<stop
   offset="0.3918"
   style="stop-color:#293758;stop-opacity:0.392"
   id="stop4239" />
			<stop
   offset="0.7979"
   style="stop-color:#2F4989;stop-opacity:0.7985"
   id="stop4241" />
			<stop
   offset="0.9993"
   style="stop-color:#31509C"
   id="stop4243" />
		</linearGradient>
		<polygon
   class="st2"
   points="7946.7,1103 7689.7,1103 7668.1,1161.9 8003.8,1161.9   "
   id="polygon4246" />
		
			<linearGradient
   id="SVGID_4_"
   gradientUnits="userSpaceOnUse"
   x1="7516.8794"
   y1="-821.7966"
   x2="7434.604"
   y2="-604.3535"
   gradientTransform="matrix(1 0 0 -1 0 414)">
			<stop
   offset="0"
   style="stop-color:#232323"
   id="stop4248" />
			<stop
   offset="0.3303"
   style="stop-color:#666666;stop-opacity:0.6697"
   id="stop4250" />
			<stop
   offset="1"
   style="stop-color:#F7F7F7;stop-opacity:0"
   id="stop4252" />
		</linearGradient>
		<path
   class="st3"
   d="M7412.5,991.6l81.7,211.1l10.9-29.7l-62.4-160.6C7437.9,999.9,7425.9,991.6,7412.5,991.6L7412.5,991.6z"
   id="path4255" />
		
			<linearGradient
   id="SVGID_5_"
   gradientUnits="userSpaceOnUse"
   x1="7596.752"
   y1="-815.8376"
   x2="7676.9434"
   y2="-599.5651"
   gradientTransform="matrix(1 0 0 -1 0 414)">
			<stop
   offset="0"
   style="stop-color:#232323"
   id="stop4257" />
			<stop
   offset="0.1431"
   style="stop-color:#3B3B3B;stop-opacity:0.8569"
   id="stop4259" />
			<stop
   offset="0.4458"
   style="stop-color:#797979;stop-opacity:0.5542"
   id="stop4261" />
			<stop
   offset="0.8801"
   style="stop-color:#DBDBDB;stop-opacity:0.1199"
   id="stop4263" />
			<stop
   offset="1"
   style="stop-color:#F7F7F7;stop-opacity:0"
   id="stop4265" />
		</linearGradient>
		<path
   class="st4"
   d="M7603.7,1170.8l10,31.9l86.7-212.1l0,0c-13.4,0-25.5,8.1-30.4,20.6L7603.7,1170.8z"
   id="path4268" />
		<path
   class="st5"
   d="M7888.3,1268.3V993.2c0-4.9,2.8-9,7.3-10.9c1.5-0.6,3-0.9,4.5-0.9c3.1,0,6.1,1.3,8.3,3.6l197.8,206.9V993.2    c0-6.5,5.3-11.7,11.7-11.7h24.9v269.6c0,4.9-2.8,9.1-7.4,10.9c-1.4,0.6-2.9,0.9-4.4,0.9c-3.1,0-6.1-1.3-8.3-3.6l-197.8-206.4    v215.6h-36.6V1268.3z"
   id="path4270" />
		<path
   class="st5"
   d="M7631.6,1267c-0.2,0-0.4,0-0.6,0c-4.9-0.2-9-3.2-10.7-7.8l-67.5-185.9l-70.3,186c-1.7,4.5-5.6,7.4-10.3,7.6    h-0.2h-0.6c-5,0-9.2-2.9-11-7.5l-110.5-276.8h32.1c5,0,9.3,3,11.1,7.6l14.7,37.7l-0.1-0.1l63.9,164l70.6-186.1    c1.8-4.7,6-7.7,11.1-7.7c5.2,0,9.4,3,11.2,7.8l67.5,185.8l83.5-201.8c1.9-4.5,6.2-7.4,11-7.4h32.2l-116.4,277.1    C7640.5,1264.3,7636.4,1267,7631.6,1267z"
   id="path4272" />
		<path
   class="st5"
   d="M7787.1,1269.6V979.2h24.9c6.5,0,11.7,5.3,11.7,11.7v278.6L7787.1,1269.6L7787.1,1269.6z"
   id="path4274" />
		<rect
   x="8114.4"
   y="1080.6"
   class="st6"
   width="20.4"
   height="55.5"
   id="rect4276" />
		<g
   id="g4299">
			
				<linearGradient
   id="SVGID_6_"
   gradientUnits="userSpaceOnUse"
   x1="8043.2002"
   y1="-707.2"
   x2="8574.2998"
   y2="-707.2"
   gradientTransform="matrix(1 0 0 -1 0 414)">
				<stop
   offset="0"
   style="stop-color:#316FA5"
   id="stop4278" />
				<stop
   offset="1"
   style="stop-color:#213F92"
   id="stop4280" />
			</linearGradient>
			<path
   class="st7"
   d="M8451.2,1154.1c22.2-6.5,40.6-18.7,54.8-36.5c16-20.1,24.1-44.3,24.1-72.1c0-35.6-12.9-64.7-38.5-86.5     c-23-19.4-60.4-29.3-111.2-29.3H8218v172h-174.8l58.1,61H8218v142h68v-142h92.1l104.6,138.9c4.8,6.9,12.8,11.1,21.2,11.1h70.4     L8451.2,1154.1z M8388.9,1102.6H8286v-108h105.1c49,0,72.8,17,72.8,52C8463.9,1084.3,8439.4,1102.6,8388.9,1102.6z"
   id="path4283" />
			
				<linearGradient
   id="SVGID_7_"
   gradientUnits="userSpaceOnUse"
   x1="8252.0498"
   y1="-688"
   x2="8252.0498"
   y2="-633.3"
   gradientTransform="matrix(1 0 0 -1 0 414)">
				<stop
   offset="0"
   style="stop-color:#213F92"
   id="stop4285" />
				<stop
   offset="0.9985"
   style="stop-color:#316FA5;stop-opacity:0"
   id="stop4287" />
			</linearGradient>
			<rect
   x="8218"
   y="1047.3"
   class="st8"
   width="68.1"
   height="54.7"
   id="rect4290" />
			
				<linearGradient
   id="SVGID_8_"
   gradientUnits="userSpaceOnUse"
   x1="8252.0498"
   y1="-2172.5193"
   x2="8252.0498"
   y2="-2104.8193"
   gradientTransform="matrix(1 0 0 1 0 3335.4194)">
				<stop
   offset="0"
   style="stop-color:#213F92"
   id="stop4292" />
				<stop
   offset="0.9985"
   style="stop-color:#316FA5;stop-opacity:0"
   id="stop4294" />
			</linearGradient>
			<rect
   x="8218"
   y="1162.9"
   class="st9"
   width="68.1"
   height="67.7"
   id="rect4297" />
		</g>
		<polygon
   class="st5"
   points="8105.4,1216.5 8105.4,980.6 8143.2,980.6 8143.2,1254.2   "
   id="polygon4301" />
	</g>
	<g
   id="WIN_Logo_White_2_">
		
			<linearGradient
   id="SVGID_9_"
   gradientUnits="userSpaceOnUse"
   x1="6358.6997"
   y1="136.9954"
   x2="6358.6997"
   y2="362.9954"
   gradientTransform="matrix(1 0 0 -1 0 414)">
			<stop
   offset="0"
   style="stop-color:#232323;stop-opacity:0"
   id="stop4304" />
			<stop
   offset="0.1741"
   style="stop-color:#424242;stop-opacity:0.1741"
   id="stop4306" />
			<stop
   offset="0.5566"
   style="stop-color:#939393;stop-opacity:0.5566"
   id="stop4308" />
			<stop
   offset="1"
   style="stop-color:#F7F7F7"
   id="stop4310" />
		</linearGradient>
		<path
   class="st10"
   d="M6369,244.5l-16.9-10.7c-2,0-3.2-0.7-3.7-1.1V37.6c0-10.6,9.2-19.1,20.6-19.1l0,0V244.5z"
   id="path4313" />
		
			<linearGradient
   id="SVGID_10_"
   gradientUnits="userSpaceOnUse"
   x1="6225.2002"
   y1="368.7511"
   x2="6225.2002"
   y2="148.2511"
   gradientTransform="matrix(1 0 0 -1 0 414)">
			<stop
   offset="0"
   style="stop-color:#232323;stop-opacity:0"
   id="stop4315" />
			<stop
   offset="0.1741"
   style="stop-color:#424242;stop-opacity:0.1741"
   id="stop4317" />
			<stop
   offset="0.5566"
   style="stop-color:#939393;stop-opacity:0.5566"
   id="stop4319" />
			<stop
   offset="1"
   style="stop-color:#F7F7F7"
   id="stop4321" />
		</linearGradient>
		<path
   class="st11"
   d="M6214.9,305.5L6214.9,305.5c11.4,0,20.6-9.2,20.6-20.6V87.2c0-0.9-1.5-2.2-3.7-2.2h-16.9V305.5z"
   id="path4324" />
		
			<linearGradient
   id="SVGID_11_"
   gradientUnits="userSpaceOnUse"
   x1="5942.8999"
   y1="244.65"
   x2="6278.6001"
   y2="244.65"
   gradientTransform="matrix(1 0 0 -1 0 414)">
			<stop
   offset="0"
   style="stop-color:#232323;stop-opacity:0"
   id="stop4326" />
			<stop
   offset="0.3918"
   style="stop-color:#293758;stop-opacity:0.392"
   id="stop4328" />
			<stop
   offset="0.7979"
   style="stop-color:#2F4989;stop-opacity:0.7985"
   id="stop4330" />
			<stop
   offset="0.9993"
   style="stop-color:#31509C"
   id="stop4332" />
		</linearGradient>
		<polygon
   class="st12"
   points="6221.6,139.9 5964.5,139.9 5942.9,198.8 6278.6,198.8   "
   id="polygon4335" />
		
			<linearGradient
   id="SVGID_12_"
   gradientUnits="userSpaceOnUse"
   x1="5791.7715"
   y1="141.324"
   x2="5709.4961"
   y2="358.7672"
   gradientTransform="matrix(1 0 0 -1 0 414)">
			<stop
   offset="0"
   style="stop-color:#232323;stop-opacity:0"
   id="stop4337" />
			<stop
   offset="0.1719"
   style="stop-color:#262626;stop-opacity:0.1719"
   id="stop4339" />
			<stop
   offset="0.3125"
   style="stop-color:#303030;stop-opacity:0.3125"
   id="stop4341" />
			<stop
   offset="0.4419"
   style="stop-color:#424242;stop-opacity:0.4419"
   id="stop4343" />
			<stop
   offset="0.5648"
   style="stop-color:#5A5A5A;stop-opacity:0.5648"
   id="stop4345" />
			<stop
   offset="0.683"
   style="stop-color:#797979;stop-opacity:0.683"
   id="stop4347" />
			<stop
   offset="0.7978"
   style="stop-color:#9F9F9F;stop-opacity:0.7978"
   id="stop4349" />
			<stop
   offset="0.9075"
   style="stop-color:#CBCBCB;stop-opacity:0.9075"
   id="stop4351" />
			<stop
   offset="1"
   style="stop-color:#F7F7F7"
   id="stop4353" />
		</linearGradient>
		<path
   class="st13"
   d="M5687.4,28.5l81.7,211.1l10.9-29.7l-62.4-160.6C5712.7,36.8,5700.7,28.5,5687.4,28.5L5687.4,28.5z"
   id="path4356" />
		
			<linearGradient
   id="SVGID_13_"
   gradientUnits="userSpaceOnUse"
   x1="5871.6411"
   y1="147.2355"
   x2="5951.833"
   y2="363.508"
   gradientTransform="matrix(1 0 0 -1 0 414)">
			<stop
   offset="0"
   style="stop-color:#232323;stop-opacity:0"
   id="stop4358" />
			<stop
   offset="0.1719"
   style="stop-color:#262626;stop-opacity:0.1719"
   id="stop4360" />
			<stop
   offset="0.3125"
   style="stop-color:#303030;stop-opacity:0.3125"
   id="stop4362" />
			<stop
   offset="0.4419"
   style="stop-color:#424242;stop-opacity:0.4419"
   id="stop4364" />
			<stop
   offset="0.5648"
   style="stop-color:#5A5A5A;stop-opacity:0.5648"
   id="stop4366" />
			<stop
   offset="0.683"
   style="stop-color:#797979;stop-opacity:0.683"
   id="stop4368" />
			<stop
   offset="0.7978"
   style="stop-color:#9F9F9F;stop-opacity:0.7978"
   id="stop4370" />
			<stop
   offset="0.9075"
   style="stop-color:#CBCBCB;stop-opacity:0.9075"
   id="stop4372" />
			<stop
   offset="1"
   style="stop-color:#F7F7F7"
   id="stop4374" />
		</linearGradient>
		<path
   class="st14"
   d="M5878.6,207.7l10,31.9l86.7-212.1l0,0c-13.4,0-25.5,8.1-30.4,20.6L5878.6,207.7z"
   id="path4377" />
		<path
   class="st6"
   d="M6163.1,305.2V30.1c0-4.9,2.8-9,7.3-10.9c1.5-0.6,3-0.9,4.5-0.9c3.1,0,6.1,1.3,8.3,3.6L6381,228.8V30.1    c0-6.5,5.3-11.7,11.7-11.7h24.9V288c0,4.9-2.8,9.1-7.4,10.9c-1.4,0.6-2.9,0.9-4.4,0.9c-3.1,0-6.1-1.3-8.3-3.6L6199.7,89.7v215.6    L6163.1,305.2L6163.1,305.2z"
   id="path4379" />
		<path
   class="st6"
   d="M6409.7,288c0,2.1-1.3,3-2.3,3.4c-1.1,0.4-2.6,0.6-4.1-0.9L6191.7,69.8v227.5h-20.6V30.1c0-2.1,1.3-3,2.3-3.4    c1.1-0.4,2.6-0.6,4.1,0.9l211.6,221.3V30.1c0-2.1,1.7-3.7,3.7-3.7h16.9V288z"
   id="path4381" />
		<path
   class="st15"
   d="M5906.4,303.9c-0.2,0-0.4,0-0.6,0c-4.9-0.2-9-3.2-10.7-7.8l-67.5-185.9l-70.3,186c-1.7,4.5-5.6,7.4-10.3,7.6    h-0.2h-0.6c-5,0-9.2-2.9-11-7.5L5624.7,19.6h32.1c5,0,9.3,3,11.1,7.6l14.7,37.7l-0.1-0.1l63.9,164L5817,42.7    c1.8-4.7,6-7.7,11.1-7.7c5.2,0,9.4,3,11.2,7.8l67.5,185.8L5990.4,27c1.9-4.5,6.2-7.4,11-7.4h32.2l-116.4,277.1    C5915.3,301.2,5911.2,303.9,5906.4,303.9z"
   id="path4383" />
		<path
   class="st15"
   d="M5827.8,87.2l74.8,206.2c0.7,2.1,2.3,2.5,3.5,2.5c1.2,0.1,2.8-0.4,3.7-2.4l111.8-266h-20.2    c-1.6,0-3,1-3.6,2.4l-91.4,220.9l-74.5-205.2c-0.8-2.1-2.4-2.5-3.6-2.5l0,0c-1.2,0-2.8,0.4-3.6,2.5l-78,205.6l-86.1-221.1l0,0    c-0.6-1.5-2-2.5-3.7-2.5h-20.3l106.1,265.8c0.8,2,2.4,2.4,3.6,2.4l0,0c1.2,0,2.8-0.5,3.6-2.5L5827.8,87.2z"
   id="path4385" />
		<path
   class="st6"
   d="M6061.9,306.5V16.1h24.9c6.5,0,11.7,5.3,11.7,11.7v278.6h-36.6V306.5z"
   id="path4387" />
		<path
   class="st6"
   d="M6069.9,298.5h20.6V27.9c0-2.1-1.7-3.7-3.7-3.7h-16.9V298.5z"
   id="path4389" />
		<rect
   x="6389.3"
   y="117.5"
   class="st6"
   width="20.4"
   height="55.5"
   id="rect4391" />
		<polygon
   class="st6"
   points="6200.4,78.9 6363.9,249.4 6386.9,246.6 6216.2,68   "
   id="polygon4393" />
		<g
   id="g4416">
			
				<linearGradient
   id="SVGID_14_"
   gradientUnits="userSpaceOnUse"
   x1="6318"
   y1="255.9"
   x2="6849.1006"
   y2="255.9"
   gradientTransform="matrix(1 0 0 -1 0 414)">
				<stop
   offset="0"
   style="stop-color:#316FA5"
   id="stop4395" />
				<stop
   offset="1"
   style="stop-color:#213F92"
   id="stop4397" />
			</linearGradient>
			<path
   class="st16"
   d="M6726,191c22.2-6.5,40.6-18.7,54.8-36.5c16-20.1,24.1-44.3,24.1-72.1c0-35.6-12.9-64.7-38.5-86.5     c-23-19.4-60.4-29.3-111.2-29.3h-162.5v172H6318l58.1,61h116.7v142h68v-142h92.1l104.6,138.9c4.8,6.9,12.8,11.1,21.2,11.1h70.4     L6726,191z M6663.7,139.5h-102.9v-108h105.1c49,0,72.8,17,72.8,52C6738.7,121.2,6714.2,139.5,6663.7,139.5z"
   id="path4400" />
			
				<linearGradient
   id="SVGID_15_"
   gradientUnits="userSpaceOnUse"
   x1="6526.8496"
   y1="275.1"
   x2="6526.8496"
   y2="329.8"
   gradientTransform="matrix(1 0 0 -1 0 414)">
				<stop
   offset="0"
   style="stop-color:#213F92"
   id="stop4402" />
				<stop
   offset="0.9985"
   style="stop-color:#316FA5;stop-opacity:0"
   id="stop4404" />
			</linearGradient>
			<rect
   x="6492.8"
   y="84.2"
   class="st17"
   width="68.1"
   height="54.7"
   id="rect4407" />
			
				<linearGradient
   id="SVGID_16_"
   gradientUnits="userSpaceOnUse"
   x1="6526.8496"
   y1="-3135.6194"
   x2="6526.8496"
   y2="-3067.9194"
   gradientTransform="matrix(1 0 0 1 0 3335.4194)">
				<stop
   offset="0"
   style="stop-color:#213F92"
   id="stop4409" />
				<stop
   offset="0.9985"
   style="stop-color:#316FA5;stop-opacity:0"
   id="stop4411" />
			</linearGradient>
			<rect
   x="6492.8"
   y="199.8"
   class="st18"
   width="68.1"
   height="67.7"
   id="rect4414" />
		</g>
		<polygon
   class="st6"
   points="6380.3,253.4 6380.3,17.5 6418.1,17.5 6418.1,291.1   "
   id="polygon4418" />
		<polygon
   class="st6"
   points="6389.3,25.5 6389.3,250.1 6410.1,271.5 6410.1,25.5   "
   id="polygon4420" />
	</g>
	<g
   id="WIN_Logo_White_3_">
		
			<linearGradient
   id="SVGID_17_"
   gradientUnits="userSpaceOnUse"
   x1="6669.6997"
   y1="-533.0046"
   x2="6669.6997"
   y2="-307.0046"
   gradientTransform="matrix(1 0 0 -1 0 414)">
			<stop
   offset="0"
   style="stop-color:#232323;stop-opacity:0"
   id="stop4423" />
			<stop
   offset="0.1741"
   style="stop-color:#424242;stop-opacity:0.1741"
   id="stop4425" />
			<stop
   offset="0.5566"
   style="stop-color:#939393;stop-opacity:0.5566"
   id="stop4427" />
			<stop
   offset="1"
   style="stop-color:#F7F7F7"
   id="stop4429" />
		</linearGradient>
		<path
   class="st19"
   d="M6680,914.5l-16.9-10.7c-2,0-3.2-0.7-3.7-1.1V707.6c0-10.6,9.2-19.1,20.6-19.1l0,0V914.5z"
   id="path4432" />
		
			<linearGradient
   id="SVGID_18_"
   gradientUnits="userSpaceOnUse"
   x1="6536.2002"
   y1="-301.2489"
   x2="6536.2002"
   y2="-521.7489"
   gradientTransform="matrix(1 0 0 -1 0 414)">
			<stop
   offset="0"
   style="stop-color:#232323;stop-opacity:0"
   id="stop4434" />
			<stop
   offset="0.1741"
   style="stop-color:#424242;stop-opacity:0.1741"
   id="stop4436" />
			<stop
   offset="0.5566"
   style="stop-color:#939393;stop-opacity:0.5566"
   id="stop4438" />
			<stop
   offset="1"
   style="stop-color:#F7F7F7"
   id="stop4440" />
		</linearGradient>
		<path
   class="st20"
   d="M6525.9,975.5L6525.9,975.5c11.4,0,20.6-9.2,20.6-20.6V757.2c0-0.9-1.5-2.2-3.7-2.2h-16.9V975.5z"
   id="path4443" />
		
			<linearGradient
   id="SVGID_19_"
   gradientUnits="userSpaceOnUse"
   x1="6253.8999"
   y1="-425.35"
   x2="6589.6001"
   y2="-425.35"
   gradientTransform="matrix(1 0 0 -1 0 414)">
			<stop
   offset="0"
   style="stop-color:#232323;stop-opacity:0"
   id="stop4445" />
			<stop
   offset="0.3918"
   style="stop-color:#293758;stop-opacity:0.392"
   id="stop4447" />
			<stop
   offset="0.7979"
   style="stop-color:#2F4989;stop-opacity:0.7985"
   id="stop4449" />
			<stop
   offset="0.9993"
   style="stop-color:#31509C"
   id="stop4451" />
		</linearGradient>
		<polygon
   class="st21"
   points="6532.6,809.9 6275.5,809.9 6253.9,868.8 6589.6,868.8   "
   id="polygon4454" />
		
			<linearGradient
   id="SVGID_20_"
   gradientUnits="userSpaceOnUse"
   x1="6102.7715"
   y1="-528.676"
   x2="6020.4961"
   y2="-311.2328"
   gradientTransform="matrix(1 0 0 -1 0 414)">
			<stop
   offset="0"
   style="stop-color:#232323;stop-opacity:0"
   id="stop4456" />
			<stop
   offset="0.1719"
   style="stop-color:#262626;stop-opacity:0.1719"
   id="stop4458" />
			<stop
   offset="0.3125"
   style="stop-color:#303030;stop-opacity:0.3125"
   id="stop4460" />
			<stop
   offset="0.4419"
   style="stop-color:#424242;stop-opacity:0.4419"
   id="stop4462" />
			<stop
   offset="0.5648"
   style="stop-color:#5A5A5A;stop-opacity:0.5648"
   id="stop4464" />
			<stop
   offset="0.683"
   style="stop-color:#797979;stop-opacity:0.683"
   id="stop4466" />
			<stop
   offset="0.7978"
   style="stop-color:#9F9F9F;stop-opacity:0.7978"
   id="stop4468" />
			<stop
   offset="0.9075"
   style="stop-color:#CBCBCB;stop-opacity:0.9075"
   id="stop4470" />
			<stop
   offset="1"
   style="stop-color:#F7F7F7"
   id="stop4472" />
		</linearGradient>
		<path
   class="st22"
   d="M5998.4,698.5l81.7,211.1l10.9-29.7l-62.4-160.6C6023.7,706.8,6011.7,698.5,5998.4,698.5L5998.4,698.5z"
   id="path4475" />
		
			<linearGradient
   id="SVGID_21_"
   gradientUnits="userSpaceOnUse"
   x1="6182.6411"
   y1="-522.7645"
   x2="6262.833"
   y2="-306.492"
   gradientTransform="matrix(1 0 0 -1 0 414)">
			<stop
   offset="0"
   style="stop-color:#232323;stop-opacity:0"
   id="stop4477" />
			<stop
   offset="0.1719"
   style="stop-color:#262626;stop-opacity:0.1719"
   id="stop4479" />
			<stop
   offset="0.3125"
   style="stop-color:#303030;stop-opacity:0.3125"
   id="stop4481" />
			<stop
   offset="0.4419"
   style="stop-color:#424242;stop-opacity:0.4419"
   id="stop4483" />
			<stop
   offset="0.5648"
   style="stop-color:#5A5A5A;stop-opacity:0.5648"
   id="stop4485" />
			<stop
   offset="0.683"
   style="stop-color:#797979;stop-opacity:0.683"
   id="stop4487" />
			<stop
   offset="0.7978"
   style="stop-color:#9F9F9F;stop-opacity:0.7978"
   id="stop4489" />
			<stop
   offset="0.9075"
   style="stop-color:#CBCBCB;stop-opacity:0.9075"
   id="stop4491" />
			<stop
   offset="1"
   style="stop-color:#F7F7F7"
   id="stop4493" />
		</linearGradient>
		<path
   class="st23"
   d="M6189.6,877.7l10,31.9l86.7-212.1l0,0c-13.4,0-25.5,8.1-30.4,20.6L6189.6,877.7z"
   id="path4496" />
		<path
   class="st6"
   d="M6474.1,975.2V700.1c0-4.9,2.8-9,7.3-10.9c1.5-0.6,3-0.9,4.5-0.9c3.1,0,6.1,1.3,8.3,3.6L6692,898.8V700.1    c0-6.5,5.3-11.7,11.7-11.7h24.9V958c0,4.9-2.8,9.1-7.4,10.9c-1.4,0.6-2.9,0.9-4.4,0.9c-3.1,0-6.1-1.3-8.3-3.6l-197.8-206.4v215.6    h-36.6V975.2z"
   id="path4498" />
		<path
   class="st6"
   d="M6720.7,958c0,2.1-1.3,3-2.3,3.4c-1.1,0.4-2.6,0.6-4.1-0.9l-211.6-220.8v227.5h-20.6V700.1    c0-2.1,1.3-3,2.3-3.4c1.1-0.4,2.6-0.6,4.1,0.9l211.6,221.3V700.1c0-2.1,1.7-3.7,3.7-3.7h16.9V958z"
   id="path4500" />
		<path
   class="st15"
   d="M6217.4,973.9c-0.2,0-0.4,0-0.6,0c-4.9-0.2-9-3.2-10.7-7.8l-67.5-185.9l-70.3,186c-1.7,4.5-5.6,7.4-10.3,7.6    h-0.2h-0.6c-5,0-9.2-2.9-11-7.5l-110.5-276.8h32.1c5,0,9.3,3,11.1,7.6l14.7,37.7l-0.1-0.1l63.9,164l70.6-186.1    c1.8-4.7,6-7.7,11.1-7.7c5.2,0,9.4,3,11.2,7.8l67.5,185.8l83.5-201.8c1.9-4.5,6.2-7.4,11-7.4h32.2l-116.4,277.1    C6226.3,971.2,6222.2,973.9,6217.4,973.9z"
   id="path4502" />
		<path
   class="st15"
   d="M6138.8,757.2l74.8,206.2c0.7,2.1,2.3,2.5,3.5,2.5c1.2,0.1,2.8-0.4,3.7-2.4l111.8-266h-20.2    c-1.6,0-3,1-3.6,2.4l-91.4,220.9l-74.5-205.2c-0.8-2.1-2.4-2.5-3.6-2.5l0,0c-1.2,0-2.8,0.4-3.6,2.5l-78,205.6l-86.1-221.1l0,0    c-0.6-1.5-2-2.5-3.7-2.5h-20.3l106.1,265.8c0.8,2,2.4,2.4,3.6,2.4l0,0c1.2,0,2.8-0.5,3.6-2.5L6138.8,757.2z"
   id="path4504" />
		<path
   class="st6"
   d="M6372.9,976.5V686.1h24.9c6.5,0,11.7,5.3,11.7,11.7v278.6L6372.9,976.5L6372.9,976.5z"
   id="path4506" />
		<path
   class="st6"
   d="M6380.9,968.5h20.6V697.9c0-2.1-1.7-3.7-3.7-3.7h-16.9V968.5z"
   id="path4508" />
		<rect
   x="6700.3"
   y="787.5"
   class="st6"
   width="20.4"
   height="55.5"
   id="rect4510" />
		<polygon
   class="st6"
   points="6511.4,748.9 6674.9,919.4 6697.9,916.6 6527.2,738   "
   id="polygon4512" />
		<g
   id="g4535">
			
				<linearGradient
   id="SVGID_22_"
   gradientUnits="userSpaceOnUse"
   x1="6629"
   y1="-414.1"
   x2="7160.1006"
   y2="-414.1"
   gradientTransform="matrix(1 0 0 -1 0 414)">
				<stop
   offset="0"
   style="stop-color:#316FA5"
   id="stop4514" />
				<stop
   offset="1"
   style="stop-color:#213F92"
   id="stop4516" />
			</linearGradient>
			<path
   class="st24"
   d="M7037,861c22.2-6.5,40.6-18.7,54.8-36.5c16-20.1,24.1-44.3,24.1-72.1c0-35.6-12.9-64.7-38.5-86.5     c-23-19.4-60.4-29.3-111.2-29.3h-162.5v172H6629l58.1,61h116.7v142h68v-142h92.1l104.6,138.9c4.8,6.9,12.8,11.1,21.2,11.1h70.4     L7037,861z M6974.7,809.5h-102.9v-108h105.1c49,0,72.8,17,72.8,52C7049.7,791.2,7025.2,809.5,6974.7,809.5z"
   id="path4519" />
			
				<linearGradient
   id="SVGID_23_"
   gradientUnits="userSpaceOnUse"
   x1="6837.8496"
   y1="-394.9"
   x2="6837.8496"
   y2="-340.2"
   gradientTransform="matrix(1 0 0 -1 0 414)">
				<stop
   offset="0"
   style="stop-color:#213F92"
   id="stop4521" />
				<stop
   offset="0.9985"
   style="stop-color:#316FA5;stop-opacity:0"
   id="stop4523" />
			</linearGradient>
			<rect
   x="6803.8"
   y="754.2"
   class="st25"
   width="68.1"
   height="54.7"
   id="rect4526" />
			
				<linearGradient
   id="SVGID_24_"
   gradientUnits="userSpaceOnUse"
   x1="6837.8496"
   y1="-2465.6194"
   x2="6837.8496"
   y2="-2397.9194"
   gradientTransform="matrix(1 0 0 1 0 3335.4194)">
				<stop
   offset="0"
   style="stop-color:#213F92"
   id="stop4528" />
				<stop
   offset="0.9985"
   style="stop-color:#316FA5;stop-opacity:0"
   id="stop4530" />
			</linearGradient>
			<rect
   x="6803.8"
   y="869.8"
   class="st26"
   width="68.1"
   height="67.7"
   id="rect4533" />
		</g>
		<polygon
   class="st6"
   points="6691.3,923.4 6691.3,687.5 6729.1,687.5 6729.1,961.1   "
   id="polygon4537" />
		<polygon
   class="st6"
   points="6700.3,695.5 6700.3,920.1 6721.1,941.5 6721.1,695.5   "
   id="polygon4539" />
	</g>
	<g
   id="WIN_Logo_White_5_">
		
			<linearGradient
   id="SVGID_25_"
   gradientUnits="userSpaceOnUse"
   x1="1329.3201"
   y1="2464.8484"
   x2="1329.3201"
   y2="2621.061"
   gradientTransform="matrix(-1 0 0 1 1949.7701 -2299.6328)">
			<stop
   offset="0"
   style="stop-color:#232323;stop-opacity:0"
   id="stop4542" />
			<stop
   offset="0.1732"
   style="stop-color:#424242;stop-opacity:0.1511"
   id="stop4544" />
			<stop
   offset="0.2222"
   style="stop-color:#4C4C4C;stop-opacity:0.1938"
   id="stop4546" />
			<stop
   offset="0.5121"
   style="stop-color:#898989;stop-opacity:0.4944"
   id="stop4548" />
			<stop
   offset="1"
   style="stop-color:#F7F7F7"
   id="stop4550" />
		</linearGradient>
		<path
   class="st27"
   d="M607.9,137v216.4c0,0,25.1,0,25.1-31.7c0-13.7,0-148.6,0-148.6L607.9,137z"
   id="path4553" />
		
			<linearGradient
   id="SVGID_26_"
   gradientUnits="userSpaceOnUse"
   x1="331.2"
   y1="197.15"
   x2="672.9"
   y2="197.15"
   gradientTransform="matrix(1 0 0 -1 0 414)">
			<stop
   offset="0"
   style="stop-color:#232323;stop-opacity:0"
   id="stop4555" />
			<stop
   offset="0.3918"
   style="stop-color:#293758;stop-opacity:0.392"
   id="stop4557" />
			<stop
   offset="0.7979"
   style="stop-color:#2F4989;stop-opacity:0.7985"
   id="stop4559" />
			<stop
   offset="0.9993"
   style="stop-color:#31509C"
   id="stop4561" />
		</linearGradient>
		<polygon
   class="st28"
   points="615.8,187.4 352.8,187.4 331.2,246.3 672.9,246.3   "
   id="polygon4564" />
		
			<linearGradient
   id="SVGID_27_"
   gradientUnits="userSpaceOnUse"
   x1="934.8273"
   y1="108.0918"
   x2="1014.6539"
   y2="323.3793"
   gradientTransform="matrix(-1 0 0 -1 1108.8333 414)">
			<stop
   offset="0"
   style="stop-color:#232323;stop-opacity:0"
   id="stop4566" />
			<stop
   offset="0.1719"
   style="stop-color:#262626;stop-opacity:0.1719"
   id="stop4568" />
			<stop
   offset="0.3125"
   style="stop-color:#303030;stop-opacity:0.3125"
   id="stop4570" />
			<stop
   offset="0.4419"
   style="stop-color:#424242;stop-opacity:0.4419"
   id="stop4572" />
			<stop
   offset="0.5648"
   style="stop-color:#5A5A5A;stop-opacity:0.5648"
   id="stop4574" />
			<stop
   offset="0.683"
   style="stop-color:#797979;stop-opacity:0.683"
   id="stop4576" />
			<stop
   offset="0.7978"
   style="stop-color:#9F9F9F;stop-opacity:0.7978"
   id="stop4578" />
			<stop
   offset="0.9075"
   style="stop-color:#CBCBCB;stop-opacity:0.9075"
   id="stop4580" />
			<stop
   offset="1"
   style="stop-color:#F7F7F7"
   id="stop4582" />
		</linearGradient>
		<path
   class="st29"
   d="M165.6,249.2l-9,29.9L72.8,67l0,0c0,0,19.7-5.8,31.4,20.6L165.6,249.2z"
   id="path4585" />
		
			<linearGradient
   id="SVGID_28_"
   gradientUnits="userSpaceOnUse"
   x1="4762.2124"
   y1="107.2611"
   x2="4842.5259"
   y2="323.8621"
   gradientTransform="matrix(1 0 0 -1 -4504.1265 414)">
			<stop
   offset="0"
   style="stop-color:#232323;stop-opacity:0"
   id="stop4587" />
			<stop
   offset="0.1719"
   style="stop-color:#262626;stop-opacity:0.1719"
   id="stop4589" />
			<stop
   offset="0.3125"
   style="stop-color:#303030;stop-opacity:0.3125"
   id="stop4591" />
			<stop
   offset="0.4419"
   style="stop-color:#424242;stop-opacity:0.4419"
   id="stop4593" />
			<stop
   offset="0.5648"
   style="stop-color:#5A5A5A;stop-opacity:0.5648"
   id="stop4595" />
			<stop
   offset="0.683"
   style="stop-color:#797979;stop-opacity:0.683"
   id="stop4597" />
			<stop
   offset="0.7978"
   style="stop-color:#9F9F9F;stop-opacity:0.7978"
   id="stop4599" />
			<stop
   offset="0.9075"
   style="stop-color:#CBCBCB;stop-opacity:0.9075"
   id="stop4601" />
			<stop
   offset="1"
   style="stop-color:#F7F7F7"
   id="stop4603" />
		</linearGradient>
		<path
   class="st30"
   d="M264.8,249.2l9,29.9L361.6,67l0,0c0,0-19.7-5.8-31.4,20.6L264.8,249.2z"
   id="path4606" />
		<path
   class="st15"
   d="M294.7,351.4c-0.2,0-0.4,0-0.6,0c-4.9-0.2-9-3.2-10.7-7.8L216,157.7l-70.3,186c-1.7,4.5-5.6,7.4-10.3,7.6    h-0.2h-0.6c-5,0-9.2-2.9-11-7.5L13,67.1h32.1h8.2L71,112.4l-0.1-0.1l63.9,164l70.6-186.1c1.8-4.7,6-7.7,11.1-7.7    c5.2,0,9.4,3,11.2,7.8l67.5,185.8l83.5-201.8l3.1-7.4H422L305.5,344.2C303.6,348.7,299.5,351.4,294.7,351.4z"
   id="path4608" />
		<path
   class="st6"
   d="M450.2,354V63.6h24.9c6.5,0,11.7,5.3,11.7,11.7V354H450.2z"
   id="path4610" />
		<g
   id="g4646">
			
				<linearGradient
   id="SVGID_29_"
   gradientUnits="userSpaceOnUse"
   x1="843.9904"
   y1="271.1819"
   x2="843.9904"
   y2="427.3946"
   gradientTransform="matrix(1 0 0 -1 -107.0404 526.0001)">
				<stop
   offset="0"
   style="stop-color:#232323;stop-opacity:0"
   id="stop4612" />
				<stop
   offset="0.1732"
   style="stop-color:#424242;stop-opacity:0.1511"
   id="stop4614" />
				<stop
   offset="0.2222"
   style="stop-color:#4C4C4C;stop-opacity:0.1938"
   id="stop4616" />
				<stop
   offset="0.5121"
   style="stop-color:#898989;stop-opacity:0.4944"
   id="stop4618" />
				<stop
   offset="1"
   style="stop-color:#F7F7F7"
   id="stop4620" />
			</linearGradient>
			<path
   class="st31"
   d="M749.5,283V66.6c0,0-25.1,0-25.1,31.7c0,13.7,0,148.6,0,148.6L749.5,283z"
   id="path4623" />
			
				<linearGradient
   id="SVGID_30_"
   gradientUnits="userSpaceOnUse"
   x1="703.2"
   y1="208.45"
   x2="1237.2999"
   y2="208.45"
   gradientTransform="matrix(1 0 0 -1 0 414)">
				<stop
   offset="0"
   style="stop-color:#316FA5"
   id="stop4625" />
				<stop
   offset="1"
   style="stop-color:#213F92"
   id="stop4627" />
			</linearGradient>
			<path
   class="st32"
   d="M1114.3,238.5c22.2-6.5,40.6-18.7,54.8-36.5c16-20.1,24.1-44.3,24.1-72.1c0-35.6-12.9-64.7-38.5-86.5     c-23-19.4-60.4-29.3-111.2-29.3H881.1v172H703.2l58.1,61H881v142h68V247h92.1l104.6,138.9c4.8,6.9,12.8,11.1,21.2,11.1h70.4     L1114.3,238.5z M1052,187H949.1V79h105.1c49,0,72.8,17,72.8,52C1127,168.7,1102.5,187,1052,187z"
   id="path4630" />
			
				<linearGradient
   id="SVGID_31_"
   gradientUnits="userSpaceOnUse"
   x1="915.15"
   y1="227.6"
   x2="915.15"
   y2="282.3"
   gradientTransform="matrix(1 0 0 -1 0 414)">
				<stop
   offset="0"
   style="stop-color:#213F92"
   id="stop4632" />
				<stop
   offset="0.9985"
   style="stop-color:#316FA5;stop-opacity:0"
   id="stop4634" />
			</linearGradient>
			<rect
   x="881.1"
   y="131.7"
   class="st33"
   width="68.1"
   height="54.7"
   id="rect4637" />
			
				<linearGradient
   id="SVGID_32_"
   gradientUnits="userSpaceOnUse"
   x1="915.15"
   y1="-3088.1194"
   x2="915.15"
   y2="-3020.4194"
   gradientTransform="matrix(1 0 0 1 0 3335.4194)">
				<stop
   offset="0"
   style="stop-color:#213F92"
   id="stop4639" />
				<stop
   offset="0.9985"
   style="stop-color:#316FA5;stop-opacity:0"
   id="stop4641" />
			</linearGradient>
			<rect
   x="881.1"
   y="247.3"
   class="st34"
   width="68.1"
   height="67.7"
   id="rect4644" />
		</g>
		<path
   class="st6"
   d="M551.4,352.7V77.6c0-4.9,2.8-9,7.3-10.9c1.5-0.6,3-0.9,4.5-0.9c3.1,0,6.1,1.3,8.3,3.6l197.8,206.9V65.8h36.6    v269.6c0,4.9-2.8,9.1-7.4,10.9c-1.4,0.6-2.9,0.9-4.4,0.9c-3.1,0-6.1-1.3-8.3-3.6L588,137.2v215.6L551.4,352.7L551.4,352.7z"
   id="path4648" />
	</g>
</g>
</svg>